<mxfile host="app.diagrams.net" modified="2024-01-08T21:17:09.241Z" agent="Mozilla/5.0 (Windows NT 10.0; Win64; x64) AppleWebKit/537.36 (KHTML, like Gecko) Chrome/120.0.0.0 Safari/537.36 OPR/106.0.0.0" etag="TPD9iOIlQX_6W0q7rit1" version="22.1.17" type="github">
  <diagram name="Page-1" id="2c4490ee-f0b8-94ab-5012-d5dc3445f7a3">
    <mxGraphModel dx="2472" dy="1050" grid="1" gridSize="10" guides="1" tooltips="1" connect="0" arrows="1" fold="1" page="1" pageScale="1.5" pageWidth="1169" pageHeight="826" background="none" math="0" shadow="0">
      <root>
        <mxCell id="0" style=";html=1;" />
        <mxCell id="1" style=";html=1;" parent="0" />
        <mxCell id="GvmEf_9hCkaW8rQPe4q8-1" value="" style="align=left;strokeColor=#CCCCCC;html=1;" parent="1" vertex="1">
          <mxGeometry x="690" y="620" width="80" height="20" as="geometry" />
        </mxCell>
        <mxCell id="67c90442a009f359-279" value="Novembre" style="strokeWidth=1;fontStyle=0;html=1;" parent="1" vertex="1">
          <mxGeometry x="770" y="439" width="320" height="20" as="geometry" />
        </mxCell>
        <mxCell id="7a8b956e7d50b54d-104" value="DÃ©cembre" style="strokeWidth=1;fontStyle=0;html=1;" parent="1" vertex="1">
          <mxGeometry x="1090" y="439" width="320" height="20" as="geometry" />
        </mxCell>
        <mxCell id="7a8b956e7d50b54d-109" value="Janvier" style="strokeWidth=1;fontStyle=0;html=1;" parent="1" vertex="1">
          <mxGeometry x="1410" y="439" width="320" height="20" as="geometry" />
        </mxCell>
        <mxCell id="7a8b956e7d50b54d-145" value="Octobre" style="strokeWidth=1;fontStyle=0;html=1;" parent="1" vertex="1">
          <mxGeometry x="450" y="439" width="320" height="20" as="geometry" />
        </mxCell>
        <mxCell id="7a8b956e7d50b54d-151" value="Septembre" style="strokeWidth=1;fontStyle=0;html=1;" parent="1" vertex="1">
          <mxGeometry x="130" y="439" width="320" height="20" as="geometry" />
        </mxCell>
        <mxCell id="7a8b956e7d50b54d-152" value="Semaine 1" style="strokeWidth=1;fontStyle=0;html=1;" parent="1" vertex="1">
          <mxGeometry x="130" y="460" width="80" height="20" as="geometry" />
        </mxCell>
        <mxCell id="KohmYElV7J4Lf4DfOWHx-1" value="Arthur Gros" style="whiteSpace=wrap;html=1;align=center;strokeColor=#CCCCCC;" parent="1" vertex="1">
          <mxGeometry y="479" width="130" height="61" as="geometry" />
        </mxCell>
        <mxCell id="KohmYElV7J4Lf4DfOWHx-3" value="Benjamin Haurogne" style="whiteSpace=wrap;html=1;align=center;strokeColor=#CCCCCC;" parent="1" vertex="1">
          <mxGeometry y="559" width="130" height="61" as="geometry" />
        </mxCell>
        <mxCell id="KohmYElV7J4Lf4DfOWHx-4" value="Benoit Maurice" style="whiteSpace=wrap;html=1;align=center;strokeColor=#CCCCCC;" parent="1" vertex="1">
          <mxGeometry y="639" width="130" height="61" as="geometry" />
        </mxCell>
        <mxCell id="KohmYElV7J4Lf4DfOWHx-5" value="Donovan Casagrande" style="whiteSpace=wrap;html=1;align=center;strokeColor=#CCCCCC;" parent="1" vertex="1">
          <mxGeometry y="719" width="130" height="61" as="geometry" />
        </mxCell>
        <mxCell id="6z6v71Y1guzTuRLKmEV8-2" value="Semaine 2" style="strokeWidth=1;fontStyle=0;html=1;" parent="1" vertex="1">
          <mxGeometry x="210" y="460" width="80" height="20" as="geometry" />
        </mxCell>
        <mxCell id="6z6v71Y1guzTuRLKmEV8-3" value="Semaine 3" style="strokeWidth=1;fontStyle=0;html=1;" parent="1" vertex="1">
          <mxGeometry x="290" y="460" width="80" height="20" as="geometry" />
        </mxCell>
        <mxCell id="6z6v71Y1guzTuRLKmEV8-4" value="Semaine 4" style="strokeWidth=1;fontStyle=0;html=1;" parent="1" vertex="1">
          <mxGeometry x="370" y="460" width="80" height="20" as="geometry" />
        </mxCell>
        <mxCell id="6z6v71Y1guzTuRLKmEV8-54" value="" style="align=left;strokeColor=#CCCCCC;html=1;" parent="1" vertex="1">
          <mxGeometry x="290" y="500" width="80" height="20" as="geometry" />
        </mxCell>
        <mxCell id="6z6v71Y1guzTuRLKmEV8-55" value="" style="align=left;strokeColor=#CCCCCC;html=1;" parent="1" vertex="1">
          <mxGeometry x="290" y="520" width="80" height="20" as="geometry" />
        </mxCell>
        <mxCell id="6z6v71Y1guzTuRLKmEV8-56" value="" style="align=left;strokeColor=#CCCCCC;html=1;" parent="1" vertex="1">
          <mxGeometry x="290" y="540" width="80" height="20" as="geometry" />
        </mxCell>
        <mxCell id="6z6v71Y1guzTuRLKmEV8-57" value="" style="align=left;strokeColor=#CCCCCC;html=1;" parent="1" vertex="1">
          <mxGeometry x="290" y="560" width="80" height="20" as="geometry" />
        </mxCell>
        <mxCell id="6z6v71Y1guzTuRLKmEV8-58" value="" style="align=left;strokeColor=#CCCCCC;html=1;" parent="1" vertex="1">
          <mxGeometry x="290" y="580" width="80" height="20" as="geometry" />
        </mxCell>
        <mxCell id="6z6v71Y1guzTuRLKmEV8-59" value="" style="align=left;strokeColor=#CCCCCC;html=1;" parent="1" vertex="1">
          <mxGeometry x="290" y="600" width="80" height="20" as="geometry" />
        </mxCell>
        <mxCell id="6z6v71Y1guzTuRLKmEV8-60" value="" style="align=left;strokeColor=#CCCCCC;html=1;" parent="1" vertex="1">
          <mxGeometry x="290" y="620" width="80" height="20" as="geometry" />
        </mxCell>
        <mxCell id="6z6v71Y1guzTuRLKmEV8-61" value="" style="align=left;strokeColor=#CCCCCC;html=1;" parent="1" vertex="1">
          <mxGeometry x="290" y="640" width="80" height="20" as="geometry" />
        </mxCell>
        <mxCell id="6z6v71Y1guzTuRLKmEV8-62" value="" style="align=left;strokeColor=#CCCCCC;html=1;" parent="1" vertex="1">
          <mxGeometry x="290" y="660" width="80" height="20" as="geometry" />
        </mxCell>
        <mxCell id="6z6v71Y1guzTuRLKmEV8-63" value="" style="align=left;strokeColor=#CCCCCC;html=1;" parent="1" vertex="1">
          <mxGeometry x="290" y="680" width="80" height="20" as="geometry" />
        </mxCell>
        <mxCell id="6z6v71Y1guzTuRLKmEV8-64" value="" style="align=left;strokeColor=#CCCCCC;html=1;" parent="1" vertex="1">
          <mxGeometry x="290" y="700" width="80" height="20" as="geometry" />
        </mxCell>
        <mxCell id="6z6v71Y1guzTuRLKmEV8-65" value="" style="align=left;strokeColor=#CCCCCC;html=1;" parent="1" vertex="1">
          <mxGeometry x="290" y="720" width="80" height="20" as="geometry" />
        </mxCell>
        <mxCell id="6z6v71Y1guzTuRLKmEV8-66" value="" style="align=left;strokeColor=#CCCCCC;html=1;" parent="1" vertex="1">
          <mxGeometry x="290" y="740" width="80" height="20" as="geometry" />
        </mxCell>
        <mxCell id="6z6v71Y1guzTuRLKmEV8-68" value="" style="align=left;strokeColor=#CCCCCC;html=1;" parent="1" vertex="1">
          <mxGeometry x="370" y="500" width="80" height="20" as="geometry" />
        </mxCell>
        <mxCell id="6z6v71Y1guzTuRLKmEV8-69" value="" style="align=left;strokeColor=#CCCCCC;html=1;" parent="1" vertex="1">
          <mxGeometry x="370" y="520" width="80" height="20" as="geometry" />
        </mxCell>
        <mxCell id="6z6v71Y1guzTuRLKmEV8-70" value="" style="align=left;strokeColor=#CCCCCC;html=1;" parent="1" vertex="1">
          <mxGeometry x="370" y="540" width="80" height="20" as="geometry" />
        </mxCell>
        <mxCell id="6z6v71Y1guzTuRLKmEV8-71" value="" style="align=left;strokeColor=#CCCCCC;html=1;" parent="1" vertex="1">
          <mxGeometry x="370" y="560" width="80" height="20" as="geometry" />
        </mxCell>
        <mxCell id="6z6v71Y1guzTuRLKmEV8-72" value="" style="align=left;strokeColor=#CCCCCC;html=1;" parent="1" vertex="1">
          <mxGeometry x="370" y="580" width="80" height="20" as="geometry" />
        </mxCell>
        <mxCell id="6z6v71Y1guzTuRLKmEV8-73" value="" style="align=left;strokeColor=#CCCCCC;html=1;" parent="1" vertex="1">
          <mxGeometry x="370" y="600" width="80" height="20" as="geometry" />
        </mxCell>
        <mxCell id="6z6v71Y1guzTuRLKmEV8-74" value="" style="align=left;strokeColor=#CCCCCC;html=1;" parent="1" vertex="1">
          <mxGeometry x="370" y="620" width="80" height="20" as="geometry" />
        </mxCell>
        <mxCell id="6z6v71Y1guzTuRLKmEV8-75" value="" style="align=left;strokeColor=#CCCCCC;html=1;" parent="1" vertex="1">
          <mxGeometry x="370" y="640" width="80" height="20" as="geometry" />
        </mxCell>
        <mxCell id="6z6v71Y1guzTuRLKmEV8-76" value="" style="align=left;strokeColor=#CCCCCC;html=1;" parent="1" vertex="1">
          <mxGeometry x="370" y="660" width="80" height="20" as="geometry" />
        </mxCell>
        <mxCell id="6z6v71Y1guzTuRLKmEV8-77" value="" style="align=left;strokeColor=#CCCCCC;html=1;" parent="1" vertex="1">
          <mxGeometry x="370" y="680" width="80" height="20" as="geometry" />
        </mxCell>
        <mxCell id="6z6v71Y1guzTuRLKmEV8-78" value="" style="align=left;strokeColor=#CCCCCC;html=1;" parent="1" vertex="1">
          <mxGeometry x="370" y="700" width="80" height="20" as="geometry" />
        </mxCell>
        <mxCell id="6z6v71Y1guzTuRLKmEV8-79" value="" style="align=left;strokeColor=#CCCCCC;html=1;" parent="1" vertex="1">
          <mxGeometry x="370" y="720" width="80" height="20" as="geometry" />
        </mxCell>
        <mxCell id="6z6v71Y1guzTuRLKmEV8-80" value="" style="align=left;strokeColor=#CCCCCC;html=1;" parent="1" vertex="1">
          <mxGeometry x="370" y="740" width="80" height="20" as="geometry" />
        </mxCell>
        <mxCell id="6z6v71Y1guzTuRLKmEV8-82" value="" style="align=left;strokeColor=#CCCCCC;html=1;" parent="1" vertex="1">
          <mxGeometry x="450" y="500" width="80" height="20" as="geometry" />
        </mxCell>
        <mxCell id="6z6v71Y1guzTuRLKmEV8-83" value="" style="align=left;strokeColor=#CCCCCC;html=1;" parent="1" vertex="1">
          <mxGeometry x="450" y="520" width="80" height="20" as="geometry" />
        </mxCell>
        <mxCell id="6z6v71Y1guzTuRLKmEV8-84" value="" style="align=left;strokeColor=#CCCCCC;html=1;" parent="1" vertex="1">
          <mxGeometry x="450" y="540" width="80" height="20" as="geometry" />
        </mxCell>
        <mxCell id="6z6v71Y1guzTuRLKmEV8-85" value="" style="align=left;strokeColor=#CCCCCC;html=1;" parent="1" vertex="1">
          <mxGeometry x="450" y="560" width="80" height="20" as="geometry" />
        </mxCell>
        <mxCell id="6z6v71Y1guzTuRLKmEV8-86" value="" style="align=left;strokeColor=#CCCCCC;html=1;" parent="1" vertex="1">
          <mxGeometry x="450" y="580" width="80" height="20" as="geometry" />
        </mxCell>
        <mxCell id="6z6v71Y1guzTuRLKmEV8-87" value="" style="align=left;strokeColor=#CCCCCC;html=1;" parent="1" vertex="1">
          <mxGeometry x="450" y="600" width="80" height="20" as="geometry" />
        </mxCell>
        <mxCell id="6z6v71Y1guzTuRLKmEV8-88" value="" style="align=left;strokeColor=#CCCCCC;html=1;" parent="1" vertex="1">
          <mxGeometry x="450" y="620" width="80" height="20" as="geometry" />
        </mxCell>
        <mxCell id="6z6v71Y1guzTuRLKmEV8-89" value="" style="align=left;strokeColor=#CCCCCC;html=1;" parent="1" vertex="1">
          <mxGeometry x="450" y="640" width="80" height="20" as="geometry" />
        </mxCell>
        <mxCell id="6z6v71Y1guzTuRLKmEV8-90" value="" style="align=left;strokeColor=#CCCCCC;html=1;" parent="1" vertex="1">
          <mxGeometry x="450" y="660" width="80" height="20" as="geometry" />
        </mxCell>
        <mxCell id="6z6v71Y1guzTuRLKmEV8-91" value="" style="align=left;strokeColor=#CCCCCC;html=1;" parent="1" vertex="1">
          <mxGeometry x="450" y="680" width="80" height="20" as="geometry" />
        </mxCell>
        <mxCell id="6z6v71Y1guzTuRLKmEV8-92" value="" style="align=left;strokeColor=#CCCCCC;html=1;" parent="1" vertex="1">
          <mxGeometry x="450" y="700" width="80" height="20" as="geometry" />
        </mxCell>
        <mxCell id="6z6v71Y1guzTuRLKmEV8-93" value="" style="align=left;strokeColor=#CCCCCC;html=1;" parent="1" vertex="1">
          <mxGeometry x="450" y="720" width="80" height="20" as="geometry" />
        </mxCell>
        <mxCell id="6z6v71Y1guzTuRLKmEV8-94" value="" style="align=left;strokeColor=#CCCCCC;html=1;" parent="1" vertex="1">
          <mxGeometry x="450" y="740" width="80" height="20" as="geometry" />
        </mxCell>
        <mxCell id="6z6v71Y1guzTuRLKmEV8-96" value="" style="align=left;strokeColor=#CCCCCC;html=1;" parent="1" vertex="1">
          <mxGeometry x="530" y="500" width="80" height="20" as="geometry" />
        </mxCell>
        <mxCell id="6z6v71Y1guzTuRLKmEV8-97" value="" style="align=left;strokeColor=#CCCCCC;html=1;" parent="1" vertex="1">
          <mxGeometry x="530" y="520" width="80" height="20" as="geometry" />
        </mxCell>
        <mxCell id="6z6v71Y1guzTuRLKmEV8-98" value="" style="align=left;strokeColor=#CCCCCC;html=1;" parent="1" vertex="1">
          <mxGeometry x="530" y="540" width="80" height="20" as="geometry" />
        </mxCell>
        <mxCell id="6z6v71Y1guzTuRLKmEV8-99" value="" style="align=left;strokeColor=#CCCCCC;html=1;" parent="1" vertex="1">
          <mxGeometry x="530" y="560" width="80" height="20" as="geometry" />
        </mxCell>
        <mxCell id="6z6v71Y1guzTuRLKmEV8-100" value="" style="align=left;strokeColor=#CCCCCC;html=1;" parent="1" vertex="1">
          <mxGeometry x="530" y="580" width="80" height="20" as="geometry" />
        </mxCell>
        <mxCell id="6z6v71Y1guzTuRLKmEV8-101" value="" style="align=left;strokeColor=#CCCCCC;html=1;" parent="1" vertex="1">
          <mxGeometry x="530" y="600" width="80" height="20" as="geometry" />
        </mxCell>
        <mxCell id="6z6v71Y1guzTuRLKmEV8-102" value="" style="align=left;strokeColor=#CCCCCC;html=1;" parent="1" vertex="1">
          <mxGeometry x="530" y="620" width="80" height="20" as="geometry" />
        </mxCell>
        <mxCell id="6z6v71Y1guzTuRLKmEV8-103" value="" style="align=left;strokeColor=#CCCCCC;html=1;" parent="1" vertex="1">
          <mxGeometry x="530" y="640" width="80" height="20" as="geometry" />
        </mxCell>
        <mxCell id="6z6v71Y1guzTuRLKmEV8-104" value="" style="align=left;strokeColor=#CCCCCC;html=1;" parent="1" vertex="1">
          <mxGeometry x="530" y="660" width="80" height="20" as="geometry" />
        </mxCell>
        <mxCell id="6z6v71Y1guzTuRLKmEV8-105" value="" style="align=left;strokeColor=#CCCCCC;html=1;" parent="1" vertex="1">
          <mxGeometry x="530" y="680" width="80" height="20" as="geometry" />
        </mxCell>
        <mxCell id="6z6v71Y1guzTuRLKmEV8-106" value="" style="align=left;strokeColor=#CCCCCC;html=1;" parent="1" vertex="1">
          <mxGeometry x="530" y="700" width="80" height="20" as="geometry" />
        </mxCell>
        <mxCell id="6z6v71Y1guzTuRLKmEV8-107" value="" style="align=left;strokeColor=#CCCCCC;html=1;" parent="1" vertex="1">
          <mxGeometry x="530" y="720" width="80" height="20" as="geometry" />
        </mxCell>
        <mxCell id="6z6v71Y1guzTuRLKmEV8-108" value="" style="align=left;strokeColor=#CCCCCC;html=1;" parent="1" vertex="1">
          <mxGeometry x="530" y="740" width="80" height="20" as="geometry" />
        </mxCell>
        <mxCell id="6z6v71Y1guzTuRLKmEV8-124" value="" style="align=left;strokeColor=#CCCCCC;html=1;" parent="1" vertex="1">
          <mxGeometry x="690" y="500" width="80" height="20" as="geometry" />
        </mxCell>
        <mxCell id="6z6v71Y1guzTuRLKmEV8-125" value="" style="align=left;strokeColor=#CCCCCC;html=1;" parent="1" vertex="1">
          <mxGeometry x="690" y="520" width="80" height="20" as="geometry" />
        </mxCell>
        <mxCell id="6z6v71Y1guzTuRLKmEV8-126" value="" style="align=left;strokeColor=#CCCCCC;html=1;" parent="1" vertex="1">
          <mxGeometry x="690" y="540" width="80" height="20" as="geometry" />
        </mxCell>
        <mxCell id="6z6v71Y1guzTuRLKmEV8-127" value="" style="align=left;strokeColor=#CCCCCC;html=1;" parent="1" vertex="1">
          <mxGeometry x="690" y="560" width="80" height="20" as="geometry" />
        </mxCell>
        <mxCell id="6z6v71Y1guzTuRLKmEV8-128" value="" style="align=left;strokeColor=#CCCCCC;html=1;" parent="1" vertex="1">
          <mxGeometry x="690" y="580" width="80" height="20" as="geometry" />
        </mxCell>
        <mxCell id="6z6v71Y1guzTuRLKmEV8-129" value="" style="align=left;strokeColor=#CCCCCC;html=1;" parent="1" vertex="1">
          <mxGeometry x="690" y="600" width="80" height="20" as="geometry" />
        </mxCell>
        <mxCell id="6z6v71Y1guzTuRLKmEV8-130" value="" style="align=left;strokeColor=#CCCCCC;html=1;" parent="1" vertex="1">
          <mxGeometry x="1480" y="611" width="80" height="20" as="geometry" />
        </mxCell>
        <mxCell id="6z6v71Y1guzTuRLKmEV8-131" value="" style="align=left;strokeColor=#CCCCCC;html=1;" parent="1" vertex="1">
          <mxGeometry x="690" y="640" width="80" height="20" as="geometry" />
        </mxCell>
        <mxCell id="6z6v71Y1guzTuRLKmEV8-132" value="" style="align=left;strokeColor=#CCCCCC;html=1;" parent="1" vertex="1">
          <mxGeometry x="690" y="660" width="80" height="20" as="geometry" />
        </mxCell>
        <mxCell id="6z6v71Y1guzTuRLKmEV8-133" value="" style="align=left;strokeColor=#CCCCCC;html=1;" parent="1" vertex="1">
          <mxGeometry x="690" y="680" width="80" height="20" as="geometry" />
        </mxCell>
        <mxCell id="6z6v71Y1guzTuRLKmEV8-134" value="" style="align=left;strokeColor=#CCCCCC;html=1;" parent="1" vertex="1">
          <mxGeometry x="690" y="700" width="80" height="20" as="geometry" />
        </mxCell>
        <mxCell id="6z6v71Y1guzTuRLKmEV8-135" value="" style="align=left;strokeColor=#CCCCCC;html=1;" parent="1" vertex="1">
          <mxGeometry x="690" y="720" width="80" height="20" as="geometry" />
        </mxCell>
        <mxCell id="6z6v71Y1guzTuRLKmEV8-136" value="" style="align=left;strokeColor=#CCCCCC;html=1;" parent="1" vertex="1">
          <mxGeometry x="690" y="740" width="80" height="20" as="geometry" />
        </mxCell>
        <mxCell id="6z6v71Y1guzTuRLKmEV8-138" value="" style="align=left;strokeColor=#CCCCCC;html=1;" parent="1" vertex="1">
          <mxGeometry x="770" y="500" width="80" height="20" as="geometry" />
        </mxCell>
        <mxCell id="6z6v71Y1guzTuRLKmEV8-139" value="" style="align=left;strokeColor=#CCCCCC;html=1;" parent="1" vertex="1">
          <mxGeometry x="770" y="520" width="80" height="20" as="geometry" />
        </mxCell>
        <mxCell id="6z6v71Y1guzTuRLKmEV8-140" value="" style="align=left;strokeColor=#CCCCCC;html=1;" parent="1" vertex="1">
          <mxGeometry x="770" y="540" width="80" height="20" as="geometry" />
        </mxCell>
        <mxCell id="6z6v71Y1guzTuRLKmEV8-141" value="" style="align=left;strokeColor=#CCCCCC;html=1;" parent="1" vertex="1">
          <mxGeometry x="770" y="560" width="80" height="20" as="geometry" />
        </mxCell>
        <mxCell id="6z6v71Y1guzTuRLKmEV8-142" value="" style="align=left;strokeColor=#CCCCCC;html=1;" parent="1" vertex="1">
          <mxGeometry x="770" y="580" width="80" height="20" as="geometry" />
        </mxCell>
        <mxCell id="6z6v71Y1guzTuRLKmEV8-143" value="" style="align=left;strokeColor=#CCCCCC;html=1;" parent="1" vertex="1">
          <mxGeometry x="770" y="600" width="80" height="20" as="geometry" />
        </mxCell>
        <mxCell id="6z6v71Y1guzTuRLKmEV8-144" value="" style="align=left;strokeColor=#CCCCCC;html=1;" parent="1" vertex="1">
          <mxGeometry x="770" y="620" width="80" height="20" as="geometry" />
        </mxCell>
        <mxCell id="6z6v71Y1guzTuRLKmEV8-145" value="" style="align=left;strokeColor=#CCCCCC;html=1;" parent="1" vertex="1">
          <mxGeometry x="770" y="640" width="80" height="20" as="geometry" />
        </mxCell>
        <mxCell id="6z6v71Y1guzTuRLKmEV8-146" value="" style="align=left;strokeColor=#CCCCCC;html=1;" parent="1" vertex="1">
          <mxGeometry x="770" y="660" width="80" height="20" as="geometry" />
        </mxCell>
        <mxCell id="6z6v71Y1guzTuRLKmEV8-147" value="" style="align=left;strokeColor=#CCCCCC;html=1;" parent="1" vertex="1">
          <mxGeometry x="770" y="680" width="80" height="20" as="geometry" />
        </mxCell>
        <mxCell id="6z6v71Y1guzTuRLKmEV8-148" value="" style="align=left;strokeColor=#CCCCCC;html=1;" parent="1" vertex="1">
          <mxGeometry x="770" y="700" width="80" height="20" as="geometry" />
        </mxCell>
        <mxCell id="6z6v71Y1guzTuRLKmEV8-149" value="" style="align=left;strokeColor=#CCCCCC;html=1;" parent="1" vertex="1">
          <mxGeometry x="770" y="720" width="80" height="20" as="geometry" />
        </mxCell>
        <mxCell id="6z6v71Y1guzTuRLKmEV8-150" value="" style="align=left;strokeColor=#CCCCCC;html=1;" parent="1" vertex="1">
          <mxGeometry x="770" y="740" width="80" height="20" as="geometry" />
        </mxCell>
        <mxCell id="6z6v71Y1guzTuRLKmEV8-152" value="" style="align=left;strokeColor=#CCCCCC;html=1;" parent="1" vertex="1">
          <mxGeometry x="850" y="500" width="80" height="20" as="geometry" />
        </mxCell>
        <mxCell id="6z6v71Y1guzTuRLKmEV8-153" value="" style="align=left;strokeColor=#CCCCCC;html=1;" parent="1" vertex="1">
          <mxGeometry x="850" y="520" width="80" height="20" as="geometry" />
        </mxCell>
        <mxCell id="6z6v71Y1guzTuRLKmEV8-154" value="" style="align=left;strokeColor=#CCCCCC;html=1;" parent="1" vertex="1">
          <mxGeometry x="850" y="540" width="80" height="20" as="geometry" />
        </mxCell>
        <mxCell id="6z6v71Y1guzTuRLKmEV8-155" value="" style="align=left;strokeColor=#CCCCCC;html=1;" parent="1" vertex="1">
          <mxGeometry x="850" y="560" width="80" height="20" as="geometry" />
        </mxCell>
        <mxCell id="6z6v71Y1guzTuRLKmEV8-156" value="" style="align=left;strokeColor=#CCCCCC;html=1;" parent="1" vertex="1">
          <mxGeometry x="850" y="580" width="80" height="20" as="geometry" />
        </mxCell>
        <mxCell id="6z6v71Y1guzTuRLKmEV8-157" value="" style="align=left;strokeColor=#CCCCCC;html=1;" parent="1" vertex="1">
          <mxGeometry x="850" y="600" width="80" height="20" as="geometry" />
        </mxCell>
        <mxCell id="6z6v71Y1guzTuRLKmEV8-158" value="" style="align=left;strokeColor=#CCCCCC;html=1;" parent="1" vertex="1">
          <mxGeometry x="850" y="620" width="80" height="20" as="geometry" />
        </mxCell>
        <mxCell id="6z6v71Y1guzTuRLKmEV8-159" value="" style="align=left;strokeColor=#CCCCCC;html=1;" parent="1" vertex="1">
          <mxGeometry x="850" y="640" width="80" height="20" as="geometry" />
        </mxCell>
        <mxCell id="6z6v71Y1guzTuRLKmEV8-160" value="" style="align=left;strokeColor=#CCCCCC;html=1;" parent="1" vertex="1">
          <mxGeometry x="850" y="660" width="80" height="20" as="geometry" />
        </mxCell>
        <mxCell id="6z6v71Y1guzTuRLKmEV8-161" value="" style="align=left;strokeColor=#CCCCCC;html=1;" parent="1" vertex="1">
          <mxGeometry x="850" y="680" width="80" height="20" as="geometry" />
        </mxCell>
        <mxCell id="6z6v71Y1guzTuRLKmEV8-162" value="" style="align=left;strokeColor=#CCCCCC;html=1;" parent="1" vertex="1">
          <mxGeometry x="850" y="700" width="80" height="20" as="geometry" />
        </mxCell>
        <mxCell id="6z6v71Y1guzTuRLKmEV8-163" value="" style="align=left;strokeColor=#CCCCCC;html=1;" parent="1" vertex="1">
          <mxGeometry x="850" y="720" width="80" height="20" as="geometry" />
        </mxCell>
        <mxCell id="6z6v71Y1guzTuRLKmEV8-164" value="" style="align=left;strokeColor=#CCCCCC;html=1;" parent="1" vertex="1">
          <mxGeometry x="850" y="740" width="80" height="20" as="geometry" />
        </mxCell>
        <mxCell id="6z6v71Y1guzTuRLKmEV8-166" value="" style="align=left;strokeColor=#CCCCCC;html=1;" parent="1" vertex="1">
          <mxGeometry x="930" y="500" width="80" height="20" as="geometry" />
        </mxCell>
        <mxCell id="6z6v71Y1guzTuRLKmEV8-167" value="" style="align=left;strokeColor=#CCCCCC;html=1;" parent="1" vertex="1">
          <mxGeometry x="930" y="520" width="80" height="20" as="geometry" />
        </mxCell>
        <mxCell id="6z6v71Y1guzTuRLKmEV8-168" value="" style="align=left;strokeColor=#CCCCCC;html=1;" parent="1" vertex="1">
          <mxGeometry x="930" y="540" width="80" height="20" as="geometry" />
        </mxCell>
        <mxCell id="6z6v71Y1guzTuRLKmEV8-169" value="" style="align=left;strokeColor=#CCCCCC;html=1;" parent="1" vertex="1">
          <mxGeometry x="930" y="560" width="80" height="20" as="geometry" />
        </mxCell>
        <mxCell id="6z6v71Y1guzTuRLKmEV8-170" value="" style="align=left;strokeColor=#CCCCCC;html=1;" parent="1" vertex="1">
          <mxGeometry x="930" y="580" width="80" height="20" as="geometry" />
        </mxCell>
        <mxCell id="6z6v71Y1guzTuRLKmEV8-171" value="" style="align=left;strokeColor=#CCCCCC;html=1;" parent="1" vertex="1">
          <mxGeometry x="930" y="600" width="80" height="20" as="geometry" />
        </mxCell>
        <mxCell id="6z6v71Y1guzTuRLKmEV8-172" value="" style="align=left;strokeColor=#CCCCCC;html=1;" parent="1" vertex="1">
          <mxGeometry x="930" y="620" width="80" height="20" as="geometry" />
        </mxCell>
        <mxCell id="6z6v71Y1guzTuRLKmEV8-173" value="" style="align=left;strokeColor=#CCCCCC;html=1;" parent="1" vertex="1">
          <mxGeometry x="930" y="640" width="80" height="20" as="geometry" />
        </mxCell>
        <mxCell id="6z6v71Y1guzTuRLKmEV8-174" value="" style="align=left;strokeColor=#CCCCCC;html=1;" parent="1" vertex="1">
          <mxGeometry x="930" y="660" width="80" height="20" as="geometry" />
        </mxCell>
        <mxCell id="6z6v71Y1guzTuRLKmEV8-175" value="" style="align=left;strokeColor=#CCCCCC;html=1;" parent="1" vertex="1">
          <mxGeometry x="930" y="680" width="80" height="20" as="geometry" />
        </mxCell>
        <mxCell id="6z6v71Y1guzTuRLKmEV8-176" value="" style="align=left;strokeColor=#CCCCCC;html=1;" parent="1" vertex="1">
          <mxGeometry x="930" y="700" width="80" height="20" as="geometry" />
        </mxCell>
        <mxCell id="6z6v71Y1guzTuRLKmEV8-177" value="" style="align=left;strokeColor=#CCCCCC;html=1;" parent="1" vertex="1">
          <mxGeometry x="930" y="720" width="80" height="20" as="geometry" />
        </mxCell>
        <mxCell id="6z6v71Y1guzTuRLKmEV8-178" value="" style="align=left;strokeColor=#CCCCCC;html=1;" parent="1" vertex="1">
          <mxGeometry x="930" y="740" width="80" height="20" as="geometry" />
        </mxCell>
        <mxCell id="6z6v71Y1guzTuRLKmEV8-180" value="" style="align=left;strokeColor=#CCCCCC;html=1;" parent="1" vertex="1">
          <mxGeometry x="1010" y="500" width="80" height="20" as="geometry" />
        </mxCell>
        <mxCell id="6z6v71Y1guzTuRLKmEV8-181" value="" style="align=left;strokeColor=#CCCCCC;html=1;" parent="1" vertex="1">
          <mxGeometry x="1010" y="520" width="80" height="20" as="geometry" />
        </mxCell>
        <mxCell id="6z6v71Y1guzTuRLKmEV8-182" value="" style="align=left;strokeColor=#CCCCCC;html=1;" parent="1" vertex="1">
          <mxGeometry x="1010" y="540" width="80" height="20" as="geometry" />
        </mxCell>
        <mxCell id="6z6v71Y1guzTuRLKmEV8-183" value="" style="align=left;strokeColor=#CCCCCC;html=1;" parent="1" vertex="1">
          <mxGeometry x="1010" y="560" width="80" height="20" as="geometry" />
        </mxCell>
        <mxCell id="6z6v71Y1guzTuRLKmEV8-184" value="" style="align=left;strokeColor=#CCCCCC;html=1;" parent="1" vertex="1">
          <mxGeometry x="1010" y="580" width="80" height="20" as="geometry" />
        </mxCell>
        <mxCell id="6z6v71Y1guzTuRLKmEV8-186" value="" style="align=left;strokeColor=#CCCCCC;html=1;" parent="1" vertex="1">
          <mxGeometry x="1010" y="620" width="80" height="20" as="geometry" />
        </mxCell>
        <mxCell id="6z6v71Y1guzTuRLKmEV8-187" value="" style="align=left;strokeColor=#CCCCCC;html=1;" parent="1" vertex="1">
          <mxGeometry x="1010" y="640" width="80" height="20" as="geometry" />
        </mxCell>
        <mxCell id="6z6v71Y1guzTuRLKmEV8-188" value="" style="align=left;strokeColor=#CCCCCC;html=1;" parent="1" vertex="1">
          <mxGeometry x="1010" y="660" width="80" height="20" as="geometry" />
        </mxCell>
        <mxCell id="6z6v71Y1guzTuRLKmEV8-189" value="" style="align=left;strokeColor=#CCCCCC;html=1;" parent="1" vertex="1">
          <mxGeometry x="1010" y="680" width="80" height="20" as="geometry" />
        </mxCell>
        <mxCell id="6z6v71Y1guzTuRLKmEV8-190" value="" style="align=left;strokeColor=#CCCCCC;html=1;" parent="1" vertex="1">
          <mxGeometry x="1010" y="700" width="80" height="20" as="geometry" />
        </mxCell>
        <mxCell id="6z6v71Y1guzTuRLKmEV8-191" value="" style="align=left;strokeColor=#CCCCCC;html=1;" parent="1" vertex="1">
          <mxGeometry x="1010" y="720" width="80" height="20" as="geometry" />
        </mxCell>
        <mxCell id="6z6v71Y1guzTuRLKmEV8-192" value="" style="align=left;strokeColor=#CCCCCC;html=1;" parent="1" vertex="1">
          <mxGeometry x="1010" y="740" width="80" height="20" as="geometry" />
        </mxCell>
        <mxCell id="6z6v71Y1guzTuRLKmEV8-193" value="Semaine 1" style="strokeWidth=1;fontStyle=0;html=1;" parent="1" vertex="1">
          <mxGeometry x="450" y="460" width="80" height="20" as="geometry" />
        </mxCell>
        <mxCell id="6z6v71Y1guzTuRLKmEV8-194" value="Semaine 2" style="strokeWidth=1;fontStyle=0;html=1;" parent="1" vertex="1">
          <mxGeometry x="530" y="460" width="80" height="20" as="geometry" />
        </mxCell>
        <mxCell id="6z6v71Y1guzTuRLKmEV8-195" value="Semaine 3" style="strokeWidth=1;fontStyle=0;html=1;" parent="1" vertex="1">
          <mxGeometry x="610" y="460" width="80" height="20" as="geometry" />
        </mxCell>
        <mxCell id="6z6v71Y1guzTuRLKmEV8-196" value="Semaine 4" style="strokeWidth=1;fontStyle=0;html=1;" parent="1" vertex="1">
          <mxGeometry x="690" y="460" width="80" height="20" as="geometry" />
        </mxCell>
        <mxCell id="6z6v71Y1guzTuRLKmEV8-197" value="Semaine 1" style="strokeWidth=1;fontStyle=0;html=1;" parent="1" vertex="1">
          <mxGeometry x="770" y="460" width="80" height="20" as="geometry" />
        </mxCell>
        <mxCell id="6z6v71Y1guzTuRLKmEV8-198" value="Semaine 2" style="strokeWidth=1;fontStyle=0;html=1;" parent="1" vertex="1">
          <mxGeometry x="850" y="460" width="80" height="20" as="geometry" />
        </mxCell>
        <mxCell id="6z6v71Y1guzTuRLKmEV8-199" value="Semaine 3" style="strokeWidth=1;fontStyle=0;html=1;" parent="1" vertex="1">
          <mxGeometry x="930" y="460" width="80" height="20" as="geometry" />
        </mxCell>
        <mxCell id="6z6v71Y1guzTuRLKmEV8-200" value="Semaine 4" style="strokeWidth=1;fontStyle=0;html=1;" parent="1" vertex="1">
          <mxGeometry x="1010" y="460" width="80" height="20" as="geometry" />
        </mxCell>
        <mxCell id="6z6v71Y1guzTuRLKmEV8-201" value="Semaine 1" style="strokeWidth=1;fontStyle=0;html=1;" parent="1" vertex="1">
          <mxGeometry x="1090" y="460" width="80" height="20" as="geometry" />
        </mxCell>
        <mxCell id="6z6v71Y1guzTuRLKmEV8-202" value="Semaine 2" style="strokeWidth=1;fontStyle=0;html=1;" parent="1" vertex="1">
          <mxGeometry x="1170" y="460" width="80" height="20" as="geometry" />
        </mxCell>
        <mxCell id="6z6v71Y1guzTuRLKmEV8-203" value="Semaine 3" style="strokeWidth=1;fontStyle=0;html=1;" parent="1" vertex="1">
          <mxGeometry x="1250" y="460" width="80" height="20" as="geometry" />
        </mxCell>
        <mxCell id="6z6v71Y1guzTuRLKmEV8-204" value="Semaine 4" style="strokeWidth=1;fontStyle=0;html=1;" parent="1" vertex="1">
          <mxGeometry x="1330" y="460" width="80" height="20" as="geometry" />
        </mxCell>
        <mxCell id="6z6v71Y1guzTuRLKmEV8-205" value="Semaine 1" style="strokeWidth=1;fontStyle=0;html=1;" parent="1" vertex="1">
          <mxGeometry x="1410" y="460" width="80" height="20" as="geometry" />
        </mxCell>
        <mxCell id="6z6v71Y1guzTuRLKmEV8-206" value="Semaine 2" style="strokeWidth=1;fontStyle=0;html=1;" parent="1" vertex="1">
          <mxGeometry x="1490" y="460" width="80" height="20" as="geometry" />
        </mxCell>
        <mxCell id="6z6v71Y1guzTuRLKmEV8-207" value="Semaine 3" style="strokeWidth=1;fontStyle=0;html=1;" parent="1" vertex="1">
          <mxGeometry x="1570" y="460" width="80" height="20" as="geometry" />
        </mxCell>
        <mxCell id="6z6v71Y1guzTuRLKmEV8-208" value="Semaine 4" style="strokeWidth=1;fontStyle=0;html=1;" parent="1" vertex="1">
          <mxGeometry x="1650" y="460" width="80" height="20" as="geometry" />
        </mxCell>
        <mxCell id="6z6v71Y1guzTuRLKmEV8-209" value="" style="align=left;strokeColor=#CCCCCC;html=1;" parent="1" vertex="1">
          <mxGeometry x="1090" y="500" width="80" height="20" as="geometry" />
        </mxCell>
        <mxCell id="6z6v71Y1guzTuRLKmEV8-210" value="" style="align=left;strokeColor=#CCCCCC;html=1;" parent="1" vertex="1">
          <mxGeometry x="1090" y="520" width="80" height="20" as="geometry" />
        </mxCell>
        <mxCell id="6z6v71Y1guzTuRLKmEV8-211" value="" style="align=left;strokeColor=#CCCCCC;html=1;" parent="1" vertex="1">
          <mxGeometry x="1090" y="540" width="80" height="20" as="geometry" />
        </mxCell>
        <mxCell id="6z6v71Y1guzTuRLKmEV8-212" value="" style="align=left;strokeColor=#CCCCCC;html=1;" parent="1" vertex="1">
          <mxGeometry x="1090" y="560" width="80" height="20" as="geometry" />
        </mxCell>
        <mxCell id="6z6v71Y1guzTuRLKmEV8-213" value="" style="align=left;strokeColor=#CCCCCC;html=1;" parent="1" vertex="1">
          <mxGeometry x="1090" y="580" width="80" height="20" as="geometry" />
        </mxCell>
        <mxCell id="6z6v71Y1guzTuRLKmEV8-214" value="" style="align=left;strokeColor=#CCCCCC;html=1;" parent="1" vertex="1">
          <mxGeometry x="1090" y="600" width="80" height="20" as="geometry" />
        </mxCell>
        <mxCell id="6z6v71Y1guzTuRLKmEV8-215" value="" style="align=left;strokeColor=#CCCCCC;html=1;" parent="1" vertex="1">
          <mxGeometry x="1090" y="620" width="80" height="20" as="geometry" />
        </mxCell>
        <mxCell id="6z6v71Y1guzTuRLKmEV8-216" value="" style="align=left;strokeColor=#CCCCCC;html=1;" parent="1" vertex="1">
          <mxGeometry x="1090" y="640" width="80" height="20" as="geometry" />
        </mxCell>
        <mxCell id="6z6v71Y1guzTuRLKmEV8-217" value="" style="align=left;strokeColor=#CCCCCC;html=1;" parent="1" vertex="1">
          <mxGeometry x="1090" y="660" width="80" height="20" as="geometry" />
        </mxCell>
        <mxCell id="6z6v71Y1guzTuRLKmEV8-218" value="" style="align=left;strokeColor=#CCCCCC;html=1;" parent="1" vertex="1">
          <mxGeometry x="1090" y="680" width="80" height="20" as="geometry" />
        </mxCell>
        <mxCell id="6z6v71Y1guzTuRLKmEV8-219" value="" style="align=left;strokeColor=#CCCCCC;html=1;" parent="1" vertex="1">
          <mxGeometry x="1090" y="700" width="80" height="20" as="geometry" />
        </mxCell>
        <mxCell id="6z6v71Y1guzTuRLKmEV8-220" value="" style="align=left;strokeColor=#CCCCCC;html=1;" parent="1" vertex="1">
          <mxGeometry x="1090" y="720" width="80" height="20" as="geometry" />
        </mxCell>
        <mxCell id="6z6v71Y1guzTuRLKmEV8-221" value="" style="align=left;strokeColor=#CCCCCC;html=1;" parent="1" vertex="1">
          <mxGeometry x="1090" y="740" width="80" height="20" as="geometry" />
        </mxCell>
        <mxCell id="6z6v71Y1guzTuRLKmEV8-222" value="" style="align=left;strokeColor=#CCCCCC;html=1;" parent="1" vertex="1">
          <mxGeometry x="1170" y="500" width="80" height="20" as="geometry" />
        </mxCell>
        <mxCell id="6z6v71Y1guzTuRLKmEV8-223" value="" style="align=left;strokeColor=#CCCCCC;html=1;" parent="1" vertex="1">
          <mxGeometry x="1170" y="520" width="80" height="20" as="geometry" />
        </mxCell>
        <mxCell id="6z6v71Y1guzTuRLKmEV8-224" value="" style="align=left;strokeColor=#CCCCCC;html=1;" parent="1" vertex="1">
          <mxGeometry x="1170" y="540" width="80" height="20" as="geometry" />
        </mxCell>
        <mxCell id="6z6v71Y1guzTuRLKmEV8-225" value="" style="align=left;strokeColor=#CCCCCC;html=1;" parent="1" vertex="1">
          <mxGeometry x="1170" y="560" width="80" height="20" as="geometry" />
        </mxCell>
        <mxCell id="6z6v71Y1guzTuRLKmEV8-226" value="" style="align=left;strokeColor=#CCCCCC;html=1;" parent="1" vertex="1">
          <mxGeometry x="1170" y="580" width="80" height="20" as="geometry" />
        </mxCell>
        <mxCell id="6z6v71Y1guzTuRLKmEV8-227" value="" style="align=left;strokeColor=#CCCCCC;html=1;" parent="1" vertex="1">
          <mxGeometry x="1170" y="600" width="80" height="20" as="geometry" />
        </mxCell>
        <mxCell id="6z6v71Y1guzTuRLKmEV8-228" value="" style="align=left;strokeColor=#CCCCCC;html=1;" parent="1" vertex="1">
          <mxGeometry x="1170" y="620" width="80" height="20" as="geometry" />
        </mxCell>
        <mxCell id="6z6v71Y1guzTuRLKmEV8-229" value="" style="align=left;strokeColor=#CCCCCC;html=1;" parent="1" vertex="1">
          <mxGeometry x="1170" y="640" width="80" height="20" as="geometry" />
        </mxCell>
        <mxCell id="6z6v71Y1guzTuRLKmEV8-230" value="" style="align=left;strokeColor=#CCCCCC;html=1;" parent="1" vertex="1">
          <mxGeometry x="1170" y="660" width="80" height="20" as="geometry" />
        </mxCell>
        <mxCell id="6z6v71Y1guzTuRLKmEV8-231" value="" style="align=left;strokeColor=#CCCCCC;html=1;" parent="1" vertex="1">
          <mxGeometry x="1170" y="680" width="80" height="20" as="geometry" />
        </mxCell>
        <mxCell id="6z6v71Y1guzTuRLKmEV8-232" value="" style="align=left;strokeColor=#CCCCCC;html=1;" parent="1" vertex="1">
          <mxGeometry x="1170" y="700" width="80" height="20" as="geometry" />
        </mxCell>
        <mxCell id="6z6v71Y1guzTuRLKmEV8-233" value="" style="align=left;strokeColor=#CCCCCC;html=1;" parent="1" vertex="1">
          <mxGeometry x="1170" y="720" width="80" height="20" as="geometry" />
        </mxCell>
        <mxCell id="6z6v71Y1guzTuRLKmEV8-234" value="" style="align=left;strokeColor=#CCCCCC;html=1;" parent="1" vertex="1">
          <mxGeometry x="1170" y="740" width="80" height="20" as="geometry" />
        </mxCell>
        <mxCell id="6z6v71Y1guzTuRLKmEV8-235" value="" style="align=left;strokeColor=#CCCCCC;html=1;" parent="1" vertex="1">
          <mxGeometry x="1250" y="500" width="80" height="20" as="geometry" />
        </mxCell>
        <mxCell id="6z6v71Y1guzTuRLKmEV8-236" value="" style="align=left;strokeColor=#CCCCCC;html=1;" parent="1" vertex="1">
          <mxGeometry x="1250" y="520" width="80" height="20" as="geometry" />
        </mxCell>
        <mxCell id="6z6v71Y1guzTuRLKmEV8-237" value="" style="align=left;strokeColor=#CCCCCC;html=1;" parent="1" vertex="1">
          <mxGeometry x="1250" y="540" width="80" height="20" as="geometry" />
        </mxCell>
        <mxCell id="6z6v71Y1guzTuRLKmEV8-238" value="" style="align=left;strokeColor=#CCCCCC;html=1;" parent="1" vertex="1">
          <mxGeometry x="1250" y="560" width="80" height="20" as="geometry" />
        </mxCell>
        <mxCell id="6z6v71Y1guzTuRLKmEV8-239" value="" style="align=left;strokeColor=#CCCCCC;html=1;" parent="1" vertex="1">
          <mxGeometry x="1250" y="580" width="80" height="20" as="geometry" />
        </mxCell>
        <mxCell id="6z6v71Y1guzTuRLKmEV8-240" value="" style="align=left;strokeColor=#CCCCCC;html=1;" parent="1" vertex="1">
          <mxGeometry x="1250" y="600" width="80" height="20" as="geometry" />
        </mxCell>
        <mxCell id="6z6v71Y1guzTuRLKmEV8-241" value="" style="align=left;strokeColor=#CCCCCC;html=1;" parent="1" vertex="1">
          <mxGeometry x="1250" y="620" width="80" height="20" as="geometry" />
        </mxCell>
        <mxCell id="6z6v71Y1guzTuRLKmEV8-242" value="" style="align=left;strokeColor=#CCCCCC;html=1;" parent="1" vertex="1">
          <mxGeometry x="1250" y="640" width="80" height="20" as="geometry" />
        </mxCell>
        <mxCell id="6z6v71Y1guzTuRLKmEV8-243" value="" style="align=left;strokeColor=#CCCCCC;html=1;" parent="1" vertex="1">
          <mxGeometry x="1250" y="660" width="80" height="20" as="geometry" />
        </mxCell>
        <mxCell id="6z6v71Y1guzTuRLKmEV8-244" value="" style="align=left;strokeColor=#CCCCCC;html=1;" parent="1" vertex="1">
          <mxGeometry x="1250" y="680" width="80" height="20" as="geometry" />
        </mxCell>
        <mxCell id="6z6v71Y1guzTuRLKmEV8-245" value="" style="align=left;strokeColor=#CCCCCC;html=1;" parent="1" vertex="1">
          <mxGeometry x="1250" y="700" width="80" height="20" as="geometry" />
        </mxCell>
        <mxCell id="6z6v71Y1guzTuRLKmEV8-246" value="" style="align=left;strokeColor=#CCCCCC;html=1;" parent="1" vertex="1">
          <mxGeometry x="1250" y="720" width="80" height="20" as="geometry" />
        </mxCell>
        <mxCell id="6z6v71Y1guzTuRLKmEV8-247" value="" style="align=left;strokeColor=#CCCCCC;html=1;" parent="1" vertex="1">
          <mxGeometry x="1250" y="740" width="80" height="20" as="geometry" />
        </mxCell>
        <mxCell id="6z6v71Y1guzTuRLKmEV8-248" value="" style="align=left;strokeColor=#CCCCCC;html=1;" parent="1" vertex="1">
          <mxGeometry x="1330" y="500" width="80" height="20" as="geometry" />
        </mxCell>
        <mxCell id="6z6v71Y1guzTuRLKmEV8-249" value="" style="align=left;strokeColor=#CCCCCC;html=1;" parent="1" vertex="1">
          <mxGeometry x="1330" y="520" width="80" height="20" as="geometry" />
        </mxCell>
        <mxCell id="6z6v71Y1guzTuRLKmEV8-250" value="" style="align=left;strokeColor=#CCCCCC;html=1;" parent="1" vertex="1">
          <mxGeometry x="1330" y="540" width="80" height="20" as="geometry" />
        </mxCell>
        <mxCell id="6z6v71Y1guzTuRLKmEV8-251" value="" style="align=left;strokeColor=#CCCCCC;html=1;" parent="1" vertex="1">
          <mxGeometry x="1330" y="560" width="80" height="20" as="geometry" />
        </mxCell>
        <mxCell id="6z6v71Y1guzTuRLKmEV8-253" value="" style="align=left;strokeColor=#CCCCCC;html=1;" parent="1" vertex="1">
          <mxGeometry x="1330" y="600" width="80" height="20" as="geometry" />
        </mxCell>
        <mxCell id="6z6v71Y1guzTuRLKmEV8-254" value="" style="align=left;strokeColor=#CCCCCC;html=1;" parent="1" vertex="1">
          <mxGeometry x="1330" y="620" width="80" height="20" as="geometry" />
        </mxCell>
        <mxCell id="6z6v71Y1guzTuRLKmEV8-255" value="" style="align=left;strokeColor=#CCCCCC;html=1;" parent="1" vertex="1">
          <mxGeometry x="1330" y="640" width="80" height="20" as="geometry" />
        </mxCell>
        <mxCell id="6z6v71Y1guzTuRLKmEV8-256" value="" style="align=left;strokeColor=#CCCCCC;html=1;" parent="1" vertex="1">
          <mxGeometry x="1330" y="660" width="80" height="20" as="geometry" />
        </mxCell>
        <mxCell id="6z6v71Y1guzTuRLKmEV8-257" value="" style="align=left;strokeColor=#CCCCCC;html=1;" parent="1" vertex="1">
          <mxGeometry x="1330" y="680" width="80" height="20" as="geometry" />
        </mxCell>
        <mxCell id="6z6v71Y1guzTuRLKmEV8-258" value="" style="align=left;strokeColor=#CCCCCC;html=1;" parent="1" vertex="1">
          <mxGeometry x="1330" y="700" width="80" height="20" as="geometry" />
        </mxCell>
        <mxCell id="6z6v71Y1guzTuRLKmEV8-259" value="" style="align=left;strokeColor=#CCCCCC;html=1;" parent="1" vertex="1">
          <mxGeometry x="1330" y="720" width="80" height="20" as="geometry" />
        </mxCell>
        <mxCell id="6z6v71Y1guzTuRLKmEV8-260" value="" style="align=left;strokeColor=#CCCCCC;html=1;" parent="1" vertex="1">
          <mxGeometry x="1330" y="740" width="80" height="20" as="geometry" />
        </mxCell>
        <mxCell id="6z6v71Y1guzTuRLKmEV8-261" value="" style="align=left;strokeColor=#CCCCCC;html=1;" parent="1" vertex="1">
          <mxGeometry x="1410" y="500" width="80" height="20" as="geometry" />
        </mxCell>
        <mxCell id="6z6v71Y1guzTuRLKmEV8-262" value="" style="align=left;strokeColor=#CCCCCC;html=1;" parent="1" vertex="1">
          <mxGeometry x="1410" y="520" width="80" height="20" as="geometry" />
        </mxCell>
        <mxCell id="6z6v71Y1guzTuRLKmEV8-263" value="" style="align=left;strokeColor=#CCCCCC;html=1;" parent="1" vertex="1">
          <mxGeometry x="1410" y="540" width="80" height="20" as="geometry" />
        </mxCell>
        <mxCell id="6z6v71Y1guzTuRLKmEV8-264" value="" style="align=left;strokeColor=#CCCCCC;html=1;" parent="1" vertex="1">
          <mxGeometry x="1410" y="560" width="80" height="20" as="geometry" />
        </mxCell>
        <mxCell id="6z6v71Y1guzTuRLKmEV8-265" value="" style="align=left;strokeColor=#CCCCCC;html=1;" parent="1" vertex="1">
          <mxGeometry x="1410" y="580" width="80" height="20" as="geometry" />
        </mxCell>
        <mxCell id="6z6v71Y1guzTuRLKmEV8-266" value="" style="align=left;strokeColor=#CCCCCC;html=1;" parent="1" vertex="1">
          <mxGeometry x="1410" y="600" width="80" height="20" as="geometry" />
        </mxCell>
        <mxCell id="6z6v71Y1guzTuRLKmEV8-267" value="" style="align=left;strokeColor=#CCCCCC;html=1;" parent="1" vertex="1">
          <mxGeometry x="1410" y="620" width="80" height="20" as="geometry" />
        </mxCell>
        <mxCell id="6z6v71Y1guzTuRLKmEV8-268" value="" style="align=left;strokeColor=#CCCCCC;html=1;" parent="1" vertex="1">
          <mxGeometry x="1410" y="640" width="80" height="20" as="geometry" />
        </mxCell>
        <mxCell id="6z6v71Y1guzTuRLKmEV8-269" value="" style="align=left;strokeColor=#CCCCCC;html=1;" parent="1" vertex="1">
          <mxGeometry x="1410" y="660" width="80" height="20" as="geometry" />
        </mxCell>
        <mxCell id="6z6v71Y1guzTuRLKmEV8-270" value="" style="align=left;strokeColor=#CCCCCC;html=1;" parent="1" vertex="1">
          <mxGeometry x="1410" y="680" width="80" height="20" as="geometry" />
        </mxCell>
        <mxCell id="6z6v71Y1guzTuRLKmEV8-271" value="" style="align=left;strokeColor=#CCCCCC;html=1;" parent="1" vertex="1">
          <mxGeometry x="1410" y="700" width="80" height="20" as="geometry" />
        </mxCell>
        <mxCell id="6z6v71Y1guzTuRLKmEV8-272" value="" style="align=left;strokeColor=#CCCCCC;html=1;" parent="1" vertex="1">
          <mxGeometry x="1410" y="720" width="80" height="20" as="geometry" />
        </mxCell>
        <mxCell id="6z6v71Y1guzTuRLKmEV8-273" value="" style="align=left;strokeColor=#CCCCCC;html=1;" parent="1" vertex="1">
          <mxGeometry x="1410" y="740" width="80" height="20" as="geometry" />
        </mxCell>
        <mxCell id="6z6v71Y1guzTuRLKmEV8-274" value="" style="align=left;strokeColor=#CCCCCC;html=1;" parent="1" vertex="1">
          <mxGeometry x="1490" y="500" width="80" height="20" as="geometry" />
        </mxCell>
        <mxCell id="6z6v71Y1guzTuRLKmEV8-275" value="" style="align=left;strokeColor=#CCCCCC;html=1;" parent="1" vertex="1">
          <mxGeometry x="1490" y="520" width="80" height="20" as="geometry" />
        </mxCell>
        <mxCell id="6z6v71Y1guzTuRLKmEV8-276" value="" style="align=left;strokeColor=#CCCCCC;html=1;" parent="1" vertex="1">
          <mxGeometry x="1490" y="540" width="80" height="20" as="geometry" />
        </mxCell>
        <mxCell id="6z6v71Y1guzTuRLKmEV8-277" value="" style="align=left;strokeColor=#CCCCCC;html=1;" parent="1" vertex="1">
          <mxGeometry x="1490" y="560" width="80" height="20" as="geometry" />
        </mxCell>
        <mxCell id="6z6v71Y1guzTuRLKmEV8-278" value="" style="align=left;strokeColor=#CCCCCC;html=1;" parent="1" vertex="1">
          <mxGeometry x="1490" y="580" width="80" height="20" as="geometry" />
        </mxCell>
        <mxCell id="6z6v71Y1guzTuRLKmEV8-279" value="" style="align=left;strokeColor=#CCCCCC;html=1;" parent="1" vertex="1">
          <mxGeometry x="1490" y="600" width="80" height="20" as="geometry" />
        </mxCell>
        <mxCell id="6z6v71Y1guzTuRLKmEV8-280" value="" style="align=left;strokeColor=#CCCCCC;html=1;" parent="1" vertex="1">
          <mxGeometry x="1490" y="620" width="80" height="20" as="geometry" />
        </mxCell>
        <mxCell id="6z6v71Y1guzTuRLKmEV8-281" value="" style="align=left;strokeColor=#CCCCCC;html=1;" parent="1" vertex="1">
          <mxGeometry x="1490" y="640" width="80" height="20" as="geometry" />
        </mxCell>
        <mxCell id="6z6v71Y1guzTuRLKmEV8-282" value="" style="align=left;strokeColor=#CCCCCC;html=1;" parent="1" vertex="1">
          <mxGeometry x="1490" y="660" width="80" height="20" as="geometry" />
        </mxCell>
        <mxCell id="6z6v71Y1guzTuRLKmEV8-283" value="" style="align=left;strokeColor=#CCCCCC;html=1;" parent="1" vertex="1">
          <mxGeometry x="1490" y="680" width="80" height="20" as="geometry" />
        </mxCell>
        <mxCell id="6z6v71Y1guzTuRLKmEV8-284" value="" style="align=left;strokeColor=#CCCCCC;html=1;" parent="1" vertex="1">
          <mxGeometry x="1490" y="700" width="80" height="20" as="geometry" />
        </mxCell>
        <mxCell id="6z6v71Y1guzTuRLKmEV8-285" value="" style="align=left;strokeColor=#CCCCCC;html=1;" parent="1" vertex="1">
          <mxGeometry x="1490" y="720" width="80" height="20" as="geometry" />
        </mxCell>
        <mxCell id="6z6v71Y1guzTuRLKmEV8-286" value="" style="align=left;strokeColor=#CCCCCC;html=1;" parent="1" vertex="1">
          <mxGeometry x="1490" y="740" width="80" height="20" as="geometry" />
        </mxCell>
        <mxCell id="6z6v71Y1guzTuRLKmEV8-287" value="" style="align=left;strokeColor=#CCCCCC;html=1;" parent="1" vertex="1">
          <mxGeometry x="1570" y="500" width="80" height="20" as="geometry" />
        </mxCell>
        <mxCell id="6z6v71Y1guzTuRLKmEV8-288" value="" style="align=left;strokeColor=#CCCCCC;html=1;" parent="1" vertex="1">
          <mxGeometry x="1570" y="520" width="80" height="20" as="geometry" />
        </mxCell>
        <mxCell id="6z6v71Y1guzTuRLKmEV8-289" value="" style="align=left;strokeColor=#CCCCCC;html=1;" parent="1" vertex="1">
          <mxGeometry x="1570" y="540" width="80" height="20" as="geometry" />
        </mxCell>
        <mxCell id="6z6v71Y1guzTuRLKmEV8-290" value="" style="align=left;strokeColor=#CCCCCC;html=1;" parent="1" vertex="1">
          <mxGeometry x="1570" y="560" width="80" height="20" as="geometry" />
        </mxCell>
        <mxCell id="6z6v71Y1guzTuRLKmEV8-291" value="" style="align=left;strokeColor=#CCCCCC;html=1;" parent="1" vertex="1">
          <mxGeometry x="1570" y="580" width="80" height="20" as="geometry" />
        </mxCell>
        <mxCell id="6z6v71Y1guzTuRLKmEV8-292" value="" style="align=left;strokeColor=#CCCCCC;html=1;" parent="1" vertex="1">
          <mxGeometry x="1570" y="600" width="80" height="20" as="geometry" />
        </mxCell>
        <mxCell id="6z6v71Y1guzTuRLKmEV8-293" value="" style="align=left;strokeColor=#CCCCCC;html=1;" parent="1" vertex="1">
          <mxGeometry x="1570" y="620" width="80" height="20" as="geometry" />
        </mxCell>
        <mxCell id="6z6v71Y1guzTuRLKmEV8-294" value="" style="align=left;strokeColor=#CCCCCC;html=1;" parent="1" vertex="1">
          <mxGeometry x="1570" y="640" width="80" height="20" as="geometry" />
        </mxCell>
        <mxCell id="6z6v71Y1guzTuRLKmEV8-295" value="" style="align=left;strokeColor=#CCCCCC;html=1;" parent="1" vertex="1">
          <mxGeometry x="1570" y="660" width="80" height="20" as="geometry" />
        </mxCell>
        <mxCell id="6z6v71Y1guzTuRLKmEV8-296" value="" style="align=left;strokeColor=#CCCCCC;html=1;" parent="1" vertex="1">
          <mxGeometry x="1570" y="680" width="80" height="20" as="geometry" />
        </mxCell>
        <mxCell id="6z6v71Y1guzTuRLKmEV8-297" value="" style="align=left;strokeColor=#CCCCCC;html=1;" parent="1" vertex="1">
          <mxGeometry x="1570" y="700" width="80" height="20" as="geometry" />
        </mxCell>
        <mxCell id="6z6v71Y1guzTuRLKmEV8-298" value="" style="align=left;strokeColor=#CCCCCC;html=1;" parent="1" vertex="1">
          <mxGeometry x="1570" y="720" width="80" height="20" as="geometry" />
        </mxCell>
        <mxCell id="6z6v71Y1guzTuRLKmEV8-299" value="" style="align=left;strokeColor=#CCCCCC;html=1;" parent="1" vertex="1">
          <mxGeometry x="1570" y="740" width="80" height="20" as="geometry" />
        </mxCell>
        <mxCell id="6z6v71Y1guzTuRLKmEV8-300" value="" style="align=left;strokeColor=#CCCCCC;html=1;" parent="1" vertex="1">
          <mxGeometry x="1650" y="500" width="80" height="20" as="geometry" />
        </mxCell>
        <mxCell id="6z6v71Y1guzTuRLKmEV8-301" value="" style="align=left;strokeColor=#CCCCCC;html=1;" parent="1" vertex="1">
          <mxGeometry x="1650" y="520" width="80" height="20" as="geometry" />
        </mxCell>
        <mxCell id="6z6v71Y1guzTuRLKmEV8-302" value="" style="align=left;strokeColor=#CCCCCC;html=1;" parent="1" vertex="1">
          <mxGeometry x="1650" y="540" width="80" height="20" as="geometry" />
        </mxCell>
        <mxCell id="6z6v71Y1guzTuRLKmEV8-303" value="" style="align=left;strokeColor=#CCCCCC;html=1;" parent="1" vertex="1">
          <mxGeometry x="1650" y="560" width="80" height="20" as="geometry" />
        </mxCell>
        <mxCell id="6z6v71Y1guzTuRLKmEV8-304" value="" style="align=left;strokeColor=#CCCCCC;html=1;" parent="1" vertex="1">
          <mxGeometry x="1650" y="580" width="80" height="20" as="geometry" />
        </mxCell>
        <mxCell id="6z6v71Y1guzTuRLKmEV8-305" value="" style="align=left;strokeColor=#CCCCCC;html=1;" parent="1" vertex="1">
          <mxGeometry x="1650" y="600" width="80" height="20" as="geometry" />
        </mxCell>
        <mxCell id="6z6v71Y1guzTuRLKmEV8-306" value="" style="align=left;strokeColor=#CCCCCC;html=1;" parent="1" vertex="1">
          <mxGeometry x="1650" y="620" width="80" height="20" as="geometry" />
        </mxCell>
        <mxCell id="6z6v71Y1guzTuRLKmEV8-307" value="" style="align=left;strokeColor=#CCCCCC;html=1;" parent="1" vertex="1">
          <mxGeometry x="1650" y="640" width="80" height="20" as="geometry" />
        </mxCell>
        <mxCell id="6z6v71Y1guzTuRLKmEV8-308" value="" style="align=left;strokeColor=#CCCCCC;html=1;" parent="1" vertex="1">
          <mxGeometry x="1650" y="660" width="80" height="20" as="geometry" />
        </mxCell>
        <mxCell id="6z6v71Y1guzTuRLKmEV8-309" value="" style="align=left;strokeColor=#CCCCCC;html=1;" parent="1" vertex="1">
          <mxGeometry x="1650" y="680" width="80" height="20" as="geometry" />
        </mxCell>
        <mxCell id="6z6v71Y1guzTuRLKmEV8-310" value="" style="align=left;strokeColor=#CCCCCC;html=1;" parent="1" vertex="1">
          <mxGeometry x="1650" y="700" width="80" height="20" as="geometry" />
        </mxCell>
        <mxCell id="6z6v71Y1guzTuRLKmEV8-311" value="" style="align=left;strokeColor=#CCCCCC;html=1;" parent="1" vertex="1">
          <mxGeometry x="1650" y="720" width="80" height="20" as="geometry" />
        </mxCell>
        <mxCell id="6z6v71Y1guzTuRLKmEV8-312" value="" style="align=left;strokeColor=#CCCCCC;html=1;" parent="1" vertex="1">
          <mxGeometry x="1650" y="740" width="80" height="20" as="geometry" />
        </mxCell>
        <mxCell id="6z6v71Y1guzTuRLKmEV8-313" value="" style="align=left;strokeColor=#CCCCCC;html=1;" parent="1" vertex="1">
          <mxGeometry x="610" y="500" width="80" height="20" as="geometry" />
        </mxCell>
        <mxCell id="6z6v71Y1guzTuRLKmEV8-314" value="" style="align=left;strokeColor=#CCCCCC;html=1;" parent="1" vertex="1">
          <mxGeometry x="610" y="520" width="80" height="20" as="geometry" />
        </mxCell>
        <mxCell id="6z6v71Y1guzTuRLKmEV8-315" value="" style="align=left;strokeColor=#CCCCCC;html=1;" parent="1" vertex="1">
          <mxGeometry x="610" y="540" width="80" height="20" as="geometry" />
        </mxCell>
        <mxCell id="6z6v71Y1guzTuRLKmEV8-316" value="" style="align=left;strokeColor=#CCCCCC;html=1;" parent="1" vertex="1">
          <mxGeometry x="610" y="560" width="80" height="20" as="geometry" />
        </mxCell>
        <mxCell id="6z6v71Y1guzTuRLKmEV8-317" value="" style="align=left;strokeColor=#CCCCCC;html=1;" parent="1" vertex="1">
          <mxGeometry x="610" y="580" width="80" height="20" as="geometry" />
        </mxCell>
        <mxCell id="6z6v71Y1guzTuRLKmEV8-318" value="" style="align=left;strokeColor=#CCCCCC;html=1;" parent="1" vertex="1">
          <mxGeometry x="610" y="600" width="80" height="20" as="geometry" />
        </mxCell>
        <mxCell id="6z6v71Y1guzTuRLKmEV8-319" value="" style="align=left;strokeColor=#CCCCCC;html=1;" parent="1" vertex="1">
          <mxGeometry x="610" y="620" width="80" height="20" as="geometry" />
        </mxCell>
        <mxCell id="6z6v71Y1guzTuRLKmEV8-320" value="" style="align=left;strokeColor=#CCCCCC;html=1;" parent="1" vertex="1">
          <mxGeometry x="610" y="640" width="80" height="20" as="geometry" />
        </mxCell>
        <mxCell id="6z6v71Y1guzTuRLKmEV8-321" value="" style="align=left;strokeColor=#CCCCCC;html=1;" parent="1" vertex="1">
          <mxGeometry x="610" y="660" width="80" height="20" as="geometry" />
        </mxCell>
        <mxCell id="6z6v71Y1guzTuRLKmEV8-322" value="" style="align=left;strokeColor=#CCCCCC;html=1;" parent="1" vertex="1">
          <mxGeometry x="610" y="680" width="80" height="20" as="geometry" />
        </mxCell>
        <mxCell id="6z6v71Y1guzTuRLKmEV8-323" value="" style="align=left;strokeColor=#CCCCCC;html=1;" parent="1" vertex="1">
          <mxGeometry x="610" y="700" width="80" height="20" as="geometry" />
        </mxCell>
        <mxCell id="6z6v71Y1guzTuRLKmEV8-324" value="" style="align=left;strokeColor=#CCCCCC;html=1;" parent="1" vertex="1">
          <mxGeometry x="610" y="720" width="80" height="20" as="geometry" />
        </mxCell>
        <mxCell id="6z6v71Y1guzTuRLKmEV8-325" value="" style="align=left;strokeColor=#CCCCCC;html=1;" parent="1" vertex="1">
          <mxGeometry x="610" y="740" width="80" height="20" as="geometry" />
        </mxCell>
        <mxCell id="6z6v71Y1guzTuRLKmEV8-326" value="" style="align=left;strokeColor=#CCCCCC;html=1;" parent="1" vertex="1">
          <mxGeometry x="210" y="500" width="80" height="20" as="geometry" />
        </mxCell>
        <mxCell id="6z6v71Y1guzTuRLKmEV8-327" value="" style="align=left;strokeColor=#CCCCCC;html=1;" parent="1" vertex="1">
          <mxGeometry x="210" y="520" width="80" height="20" as="geometry" />
        </mxCell>
        <mxCell id="6z6v71Y1guzTuRLKmEV8-328" value="" style="align=left;strokeColor=#CCCCCC;html=1;" parent="1" vertex="1">
          <mxGeometry x="210" y="540" width="80" height="20" as="geometry" />
        </mxCell>
        <mxCell id="6z6v71Y1guzTuRLKmEV8-329" value="" style="align=left;strokeColor=#CCCCCC;html=1;" parent="1" vertex="1">
          <mxGeometry x="210" y="560" width="80" height="20" as="geometry" />
        </mxCell>
        <mxCell id="6z6v71Y1guzTuRLKmEV8-330" value="" style="align=left;strokeColor=#CCCCCC;html=1;" parent="1" vertex="1">
          <mxGeometry x="210" y="580" width="80" height="20" as="geometry" />
        </mxCell>
        <mxCell id="6z6v71Y1guzTuRLKmEV8-331" value="" style="align=left;strokeColor=#CCCCCC;html=1;" parent="1" vertex="1">
          <mxGeometry x="210" y="600" width="80" height="20" as="geometry" />
        </mxCell>
        <mxCell id="6z6v71Y1guzTuRLKmEV8-332" value="" style="align=left;strokeColor=#CCCCCC;html=1;" parent="1" vertex="1">
          <mxGeometry x="210" y="620" width="80" height="20" as="geometry" />
        </mxCell>
        <mxCell id="6z6v71Y1guzTuRLKmEV8-333" value="" style="align=left;strokeColor=#CCCCCC;html=1;" parent="1" vertex="1">
          <mxGeometry x="210" y="640" width="80" height="20" as="geometry" />
        </mxCell>
        <mxCell id="6z6v71Y1guzTuRLKmEV8-334" value="" style="align=left;strokeColor=#CCCCCC;html=1;" parent="1" vertex="1">
          <mxGeometry x="210" y="660" width="80" height="20" as="geometry" />
        </mxCell>
        <mxCell id="6z6v71Y1guzTuRLKmEV8-335" value="" style="align=left;strokeColor=#CCCCCC;html=1;" parent="1" vertex="1">
          <mxGeometry x="210" y="680" width="80" height="20" as="geometry" />
        </mxCell>
        <mxCell id="6z6v71Y1guzTuRLKmEV8-336" value="" style="align=left;strokeColor=#CCCCCC;html=1;" parent="1" vertex="1">
          <mxGeometry x="210" y="700" width="80" height="20" as="geometry" />
        </mxCell>
        <mxCell id="6z6v71Y1guzTuRLKmEV8-337" value="" style="align=left;strokeColor=#CCCCCC;html=1;" parent="1" vertex="1">
          <mxGeometry x="210" y="720" width="80" height="20" as="geometry" />
        </mxCell>
        <mxCell id="6z6v71Y1guzTuRLKmEV8-338" value="" style="align=left;strokeColor=#CCCCCC;html=1;" parent="1" vertex="1">
          <mxGeometry x="210" y="740" width="80" height="20" as="geometry" />
        </mxCell>
        <mxCell id="6z6v71Y1guzTuRLKmEV8-339" value="" style="align=left;strokeColor=#CCCCCC;html=1;" parent="1" vertex="1">
          <mxGeometry x="130" y="500" width="80" height="20" as="geometry" />
        </mxCell>
        <mxCell id="6z6v71Y1guzTuRLKmEV8-340" value="" style="align=left;strokeColor=#CCCCCC;html=1;" parent="1" vertex="1">
          <mxGeometry x="130" y="520" width="80" height="20" as="geometry" />
        </mxCell>
        <mxCell id="6z6v71Y1guzTuRLKmEV8-341" value="" style="align=left;strokeColor=#CCCCCC;html=1;" parent="1" vertex="1">
          <mxGeometry x="130" y="540" width="80" height="20" as="geometry" />
        </mxCell>
        <mxCell id="6z6v71Y1guzTuRLKmEV8-342" value="" style="align=left;strokeColor=#CCCCCC;html=1;" parent="1" vertex="1">
          <mxGeometry x="130" y="560" width="80" height="20" as="geometry" />
        </mxCell>
        <mxCell id="6z6v71Y1guzTuRLKmEV8-343" value="" style="align=left;strokeColor=#CCCCCC;html=1;" parent="1" vertex="1">
          <mxGeometry x="130" y="580" width="80" height="20" as="geometry" />
        </mxCell>
        <mxCell id="6z6v71Y1guzTuRLKmEV8-344" value="" style="align=left;strokeColor=#CCCCCC;html=1;" parent="1" vertex="1">
          <mxGeometry x="130" y="600" width="80" height="20" as="geometry" />
        </mxCell>
        <mxCell id="6z6v71Y1guzTuRLKmEV8-345" value="" style="align=left;strokeColor=#CCCCCC;html=1;" parent="1" vertex="1">
          <mxGeometry x="130" y="620" width="80" height="20" as="geometry" />
        </mxCell>
        <mxCell id="6z6v71Y1guzTuRLKmEV8-346" value="" style="align=left;strokeColor=#CCCCCC;html=1;" parent="1" vertex="1">
          <mxGeometry x="130" y="640" width="80" height="20" as="geometry" />
        </mxCell>
        <mxCell id="6z6v71Y1guzTuRLKmEV8-347" value="" style="align=left;strokeColor=#CCCCCC;html=1;" parent="1" vertex="1">
          <mxGeometry x="130" y="660" width="80" height="20" as="geometry" />
        </mxCell>
        <mxCell id="6z6v71Y1guzTuRLKmEV8-348" value="" style="align=left;strokeColor=#CCCCCC;html=1;" parent="1" vertex="1">
          <mxGeometry x="130" y="680" width="80" height="20" as="geometry" />
        </mxCell>
        <mxCell id="6z6v71Y1guzTuRLKmEV8-349" value="" style="align=left;strokeColor=#CCCCCC;html=1;" parent="1" vertex="1">
          <mxGeometry x="130" y="700" width="80" height="20" as="geometry" />
        </mxCell>
        <mxCell id="6z6v71Y1guzTuRLKmEV8-350" value="" style="align=left;strokeColor=#CCCCCC;html=1;" parent="1" vertex="1">
          <mxGeometry x="130" y="720" width="80" height="20" as="geometry" />
        </mxCell>
        <mxCell id="6z6v71Y1guzTuRLKmEV8-351" value="" style="align=left;strokeColor=#CCCCCC;html=1;" parent="1" vertex="1">
          <mxGeometry x="130" y="740" width="80" height="20" as="geometry" />
        </mxCell>
        <mxCell id="D_p1Tdk2fjc7s-4Ue-eS-1" value="" style="align=left;strokeColor=#CCCCCC;html=1;" parent="1" vertex="1">
          <mxGeometry x="1010" y="600" width="80" height="20" as="geometry" />
        </mxCell>
        <mxCell id="D_p1Tdk2fjc7s-4Ue-eS-2" value="" style="align=left;strokeColor=#CCCCCC;html=1;" parent="1" vertex="1">
          <mxGeometry x="130" y="480" width="80" height="20" as="geometry" />
        </mxCell>
        <mxCell id="D_p1Tdk2fjc7s-4Ue-eS-3" value="" style="align=left;strokeColor=#CCCCCC;html=1;" parent="1" vertex="1">
          <mxGeometry x="210" y="480" width="80" height="20" as="geometry" />
        </mxCell>
        <mxCell id="D_p1Tdk2fjc7s-4Ue-eS-4" value="" style="align=left;strokeColor=#CCCCCC;html=1;" parent="1" vertex="1">
          <mxGeometry x="290" y="480" width="80" height="20" as="geometry" />
        </mxCell>
        <mxCell id="D_p1Tdk2fjc7s-4Ue-eS-5" value="" style="align=left;strokeColor=#CCCCCC;html=1;" parent="1" vertex="1">
          <mxGeometry x="370" y="480" width="80" height="20" as="geometry" />
        </mxCell>
        <mxCell id="D_p1Tdk2fjc7s-4Ue-eS-6" value="" style="align=left;strokeColor=#CCCCCC;html=1;" parent="1" vertex="1">
          <mxGeometry x="450" y="480" width="80" height="20" as="geometry" />
        </mxCell>
        <mxCell id="D_p1Tdk2fjc7s-4Ue-eS-7" value="" style="align=left;strokeColor=#CCCCCC;html=1;" parent="1" vertex="1">
          <mxGeometry x="530" y="480" width="80" height="20" as="geometry" />
        </mxCell>
        <mxCell id="D_p1Tdk2fjc7s-4Ue-eS-8" value="" style="align=left;strokeColor=#CCCCCC;html=1;" parent="1" vertex="1">
          <mxGeometry x="610" y="480" width="80" height="20" as="geometry" />
        </mxCell>
        <mxCell id="D_p1Tdk2fjc7s-4Ue-eS-9" value="" style="align=left;strokeColor=#CCCCCC;html=1;" parent="1" vertex="1">
          <mxGeometry x="690" y="480" width="80" height="20" as="geometry" />
        </mxCell>
        <mxCell id="D_p1Tdk2fjc7s-4Ue-eS-10" value="" style="align=left;strokeColor=#CCCCCC;html=1;" parent="1" vertex="1">
          <mxGeometry x="770" y="480" width="80" height="20" as="geometry" />
        </mxCell>
        <mxCell id="D_p1Tdk2fjc7s-4Ue-eS-11" value="" style="align=left;strokeColor=#CCCCCC;html=1;" parent="1" vertex="1">
          <mxGeometry x="850" y="480" width="80" height="20" as="geometry" />
        </mxCell>
        <mxCell id="D_p1Tdk2fjc7s-4Ue-eS-12" value="" style="align=left;strokeColor=#CCCCCC;html=1;" parent="1" vertex="1">
          <mxGeometry x="930" y="480" width="80" height="20" as="geometry" />
        </mxCell>
        <mxCell id="D_p1Tdk2fjc7s-4Ue-eS-13" value="" style="align=left;strokeColor=#CCCCCC;html=1;" parent="1" vertex="1">
          <mxGeometry x="1010" y="480" width="80" height="20" as="geometry" />
        </mxCell>
        <mxCell id="D_p1Tdk2fjc7s-4Ue-eS-14" value="" style="align=left;strokeColor=#CCCCCC;html=1;" parent="1" vertex="1">
          <mxGeometry x="1090" y="480" width="80" height="20" as="geometry" />
        </mxCell>
        <mxCell id="D_p1Tdk2fjc7s-4Ue-eS-15" value="" style="align=left;strokeColor=#CCCCCC;html=1;" parent="1" vertex="1">
          <mxGeometry x="1170" y="480" width="80" height="20" as="geometry" />
        </mxCell>
        <mxCell id="D_p1Tdk2fjc7s-4Ue-eS-16" value="" style="align=left;strokeColor=#CCCCCC;html=1;" parent="1" vertex="1">
          <mxGeometry x="1250" y="480" width="80" height="20" as="geometry" />
        </mxCell>
        <mxCell id="D_p1Tdk2fjc7s-4Ue-eS-17" value="" style="align=left;strokeColor=#CCCCCC;html=1;" parent="1" vertex="1">
          <mxGeometry x="1330" y="480" width="80" height="20" as="geometry" />
        </mxCell>
        <mxCell id="D_p1Tdk2fjc7s-4Ue-eS-18" value="" style="align=left;strokeColor=#CCCCCC;html=1;" parent="1" vertex="1">
          <mxGeometry x="1410" y="480" width="80" height="20" as="geometry" />
        </mxCell>
        <mxCell id="D_p1Tdk2fjc7s-4Ue-eS-19" value="" style="align=left;strokeColor=#CCCCCC;html=1;" parent="1" vertex="1">
          <mxGeometry x="1490" y="480" width="80" height="20" as="geometry" />
        </mxCell>
        <mxCell id="D_p1Tdk2fjc7s-4Ue-eS-20" value="" style="align=left;strokeColor=#CCCCCC;html=1;" parent="1" vertex="1">
          <mxGeometry x="1570" y="480" width="80" height="20" as="geometry" />
        </mxCell>
        <mxCell id="D_p1Tdk2fjc7s-4Ue-eS-23" value="" style="align=left;strokeColor=#CCCCCC;html=1;" parent="1" vertex="1">
          <mxGeometry x="1650" y="480" width="80" height="20" as="geometry" />
        </mxCell>
        <mxCell id="7a8b956e7d50b54d-359" value="Analyse des besoins" style="align=left;strokeColor=#6c8ebf;html=1;fillColor=#dae8fc;" parent="1" vertex="1">
          <mxGeometry x="130" y="480" width="160" height="20" as="geometry" />
        </mxCell>
        <mxCell id="D_p1Tdk2fjc7s-4Ue-eS-30" value="Analyse des besoins" style="align=left;strokeColor=#6c8ebf;html=1;fillColor=#dae8fc;" parent="1" vertex="1">
          <mxGeometry x="130" y="560" width="160" height="20" as="geometry" />
        </mxCell>
        <mxCell id="D_p1Tdk2fjc7s-4Ue-eS-31" value="Analyse des besoins" style="align=left;strokeColor=#6c8ebf;html=1;fillColor=#dae8fc;" parent="1" vertex="1">
          <mxGeometry x="130" y="640" width="160" height="20" as="geometry" />
        </mxCell>
        <mxCell id="D_p1Tdk2fjc7s-4Ue-eS-32" value="Analyse des besoins" style="align=left;strokeColor=#6c8ebf;html=1;fillColor=#dae8fc;" parent="1" vertex="1">
          <mxGeometry x="130" y="720" width="160" height="20" as="geometry" />
        </mxCell>
        <mxCell id="7a8b956e7d50b54d-357" value="DÃ©finition&lt;br&gt;des recettes" style="align=left;strokeColor=#6c8ebf;html=1;fillColor=#dae8fc;" parent="1" vertex="1">
          <mxGeometry x="210" y="500" width="80" height="40" as="geometry" />
        </mxCell>
        <mxCell id="D_p1Tdk2fjc7s-4Ue-eS-34" value="" style="align=left;strokeColor=#CCCCCC;html=1;" parent="1" vertex="1">
          <mxGeometry x="610" y="760" width="80" height="20" as="geometry" />
        </mxCell>
        <mxCell id="D_p1Tdk2fjc7s-4Ue-eS-35" value="" style="align=left;strokeColor=#CCCCCC;html=1;" parent="1" vertex="1">
          <mxGeometry x="690" y="760" width="80" height="20" as="geometry" />
        </mxCell>
        <mxCell id="D_p1Tdk2fjc7s-4Ue-eS-36" value="" style="align=left;strokeColor=#CCCCCC;html=1;" parent="1" vertex="1">
          <mxGeometry x="770" y="760" width="80" height="20" as="geometry" />
        </mxCell>
        <mxCell id="D_p1Tdk2fjc7s-4Ue-eS-37" value="" style="align=left;strokeColor=#CCCCCC;html=1;" parent="1" vertex="1">
          <mxGeometry x="850" y="760" width="80" height="20" as="geometry" />
        </mxCell>
        <mxCell id="D_p1Tdk2fjc7s-4Ue-eS-38" value="" style="align=left;strokeColor=#CCCCCC;html=1;" parent="1" vertex="1">
          <mxGeometry x="930" y="760" width="80" height="20" as="geometry" />
        </mxCell>
        <mxCell id="D_p1Tdk2fjc7s-4Ue-eS-39" value="" style="align=left;strokeColor=#CCCCCC;html=1;" parent="1" vertex="1">
          <mxGeometry x="1010" y="760" width="80" height="20" as="geometry" />
        </mxCell>
        <mxCell id="D_p1Tdk2fjc7s-4Ue-eS-40" value="" style="align=left;strokeColor=#CCCCCC;html=1;" parent="1" vertex="1">
          <mxGeometry x="1090" y="760" width="80" height="20" as="geometry" />
        </mxCell>
        <mxCell id="D_p1Tdk2fjc7s-4Ue-eS-41" value="" style="align=left;strokeColor=#CCCCCC;html=1;" parent="1" vertex="1">
          <mxGeometry x="1170" y="760" width="80" height="20" as="geometry" />
        </mxCell>
        <mxCell id="D_p1Tdk2fjc7s-4Ue-eS-42" value="" style="align=left;strokeColor=#CCCCCC;html=1;" parent="1" vertex="1">
          <mxGeometry x="1250" y="760" width="80" height="20" as="geometry" />
        </mxCell>
        <mxCell id="D_p1Tdk2fjc7s-4Ue-eS-43" value="" style="align=left;strokeColor=#CCCCCC;html=1;" parent="1" vertex="1">
          <mxGeometry x="1330" y="760" width="80" height="20" as="geometry" />
        </mxCell>
        <mxCell id="D_p1Tdk2fjc7s-4Ue-eS-44" value="" style="align=left;strokeColor=#CCCCCC;html=1;" parent="1" vertex="1">
          <mxGeometry x="1410" y="760" width="80" height="20" as="geometry" />
        </mxCell>
        <mxCell id="D_p1Tdk2fjc7s-4Ue-eS-45" value="" style="align=left;strokeColor=#CCCCCC;html=1;" parent="1" vertex="1">
          <mxGeometry x="1490" y="760" width="80" height="20" as="geometry" />
        </mxCell>
        <mxCell id="D_p1Tdk2fjc7s-4Ue-eS-46" value="" style="align=left;strokeColor=#CCCCCC;html=1;" parent="1" vertex="1">
          <mxGeometry x="1570" y="760" width="80" height="20" as="geometry" />
        </mxCell>
        <mxCell id="D_p1Tdk2fjc7s-4Ue-eS-47" value="" style="align=left;strokeColor=#CCCCCC;html=1;" parent="1" vertex="1">
          <mxGeometry x="1650" y="760" width="80" height="20" as="geometry" />
        </mxCell>
        <mxCell id="D_p1Tdk2fjc7s-4Ue-eS-52" value="" style="align=left;strokeColor=#CCCCCC;html=1;" parent="1" vertex="1">
          <mxGeometry x="130" y="760" width="80" height="20" as="geometry" />
        </mxCell>
        <mxCell id="D_p1Tdk2fjc7s-4Ue-eS-53" value="" style="align=left;strokeColor=#CCCCCC;html=1;" parent="1" vertex="1">
          <mxGeometry x="210" y="760" width="80" height="20" as="geometry" />
        </mxCell>
        <mxCell id="D_p1Tdk2fjc7s-4Ue-eS-54" value="" style="align=left;strokeColor=#CCCCCC;html=1;" parent="1" vertex="1">
          <mxGeometry x="290" y="760" width="80" height="20" as="geometry" />
        </mxCell>
        <mxCell id="D_p1Tdk2fjc7s-4Ue-eS-55" value="" style="align=left;strokeColor=#CCCCCC;html=1;" parent="1" vertex="1">
          <mxGeometry x="370" y="760" width="80" height="20" as="geometry" />
        </mxCell>
        <mxCell id="D_p1Tdk2fjc7s-4Ue-eS-56" value="" style="align=left;strokeColor=#CCCCCC;html=1;" parent="1" vertex="1">
          <mxGeometry x="450" y="760" width="80" height="20" as="geometry" />
        </mxCell>
        <mxCell id="D_p1Tdk2fjc7s-4Ue-eS-57" value="" style="align=left;strokeColor=#CCCCCC;html=1;" parent="1" vertex="1">
          <mxGeometry x="530" y="760" width="80" height="20" as="geometry" />
        </mxCell>
        <mxCell id="D_p1Tdk2fjc7s-4Ue-eS-33" value="DÃ©finition&lt;br&gt;des recettes" style="align=left;strokeColor=#6c8ebf;html=1;fillColor=#dae8fc;" parent="1" vertex="1">
          <mxGeometry x="210" y="740" width="80" height="40" as="geometry" />
        </mxCell>
        <mxCell id="D_p1Tdk2fjc7s-4Ue-eS-59" value="Diagramme de cas d&#39;utilisations" style="align=left;strokeColor=#6c8ebf;html=1;fillColor=#dae8fc;" parent="1" vertex="1">
          <mxGeometry x="370" y="560" width="240" height="20" as="geometry" />
        </mxCell>
        <mxCell id="D_p1Tdk2fjc7s-4Ue-eS-60" value="Cas d&#39;Utilisations" style="align=left;strokeColor=#6c8ebf;html=1;fillColor=#dae8fc;" parent="1" vertex="1">
          <mxGeometry x="530" y="580" width="160" height="20" as="geometry" />
        </mxCell>
        <mxCell id="D_p1Tdk2fjc7s-4Ue-eS-61" value="Conception de l&#39;architecture&lt;br&gt;du logiciel" style="align=left;strokeColor=#6c8ebf;html=1;fillColor=#dae8fc;" parent="1" vertex="1">
          <mxGeometry x="290" y="640" width="160" height="40" as="geometry" />
        </mxCell>
        <mxCell id="D_p1Tdk2fjc7s-4Ue-eS-58" value="Cahier des charges" style="align=left;strokeColor=#6c8ebf;html=1;fillColor=#dae8fc;" parent="1" vertex="1">
          <mxGeometry x="290" y="720" width="320" height="20" as="geometry" />
        </mxCell>
        <mxCell id="D_p1Tdk2fjc7s-4Ue-eS-63" value="Cas de tests" style="align=left;strokeColor=#6c8ebf;html=1;fillColor=#dae8fc;" parent="1" vertex="1">
          <mxGeometry x="530" y="740" width="160" height="20" as="geometry" />
        </mxCell>
        <mxCell id="D_p1Tdk2fjc7s-4Ue-eS-64" value="Diagramme de classes" style="align=left;strokeColor=#6c8ebf;html=1;fillColor=#dae8fc;" parent="1" vertex="1">
          <mxGeometry x="290" y="480" width="160" height="20" as="geometry" />
        </mxCell>
        <mxCell id="D_p1Tdk2fjc7s-4Ue-eS-65" value="Diagramme de sÃ©quence" style="align=left;strokeColor=#6c8ebf;html=1;fillColor=#dae8fc;" parent="1" vertex="1">
          <mxGeometry x="450" y="480" width="190" height="20" as="geometry" />
        </mxCell>
        <mxCell id="D_p1Tdk2fjc7s-4Ue-eS-66" value="Diagramme de classes" style="align=left;strokeColor=#6c8ebf;html=1;fillColor=#dae8fc;" parent="1" vertex="1">
          <mxGeometry x="400" y="680" width="130" height="20" as="geometry" />
        </mxCell>
        <mxCell id="D_p1Tdk2fjc7s-4Ue-eS-68" value="" style="endArrow=none;html=1;rounded=0;strokeColor=#FF0000;" parent="1" edge="1">
          <mxGeometry width="50" height="50" relative="1" as="geometry">
            <mxPoint x="690" y="479" as="sourcePoint" />
            <mxPoint x="690" y="840" as="targetPoint" />
          </mxGeometry>
        </mxCell>
        <mxCell id="D_p1Tdk2fjc7s-4Ue-eS-69" value="19 Octobre" style="rounded=0;whiteSpace=wrap;html=1;" parent="1" vertex="1">
          <mxGeometry x="630" y="840" width="120" height="60" as="geometry" />
        </mxCell>
        <mxCell id="D_p1Tdk2fjc7s-4Ue-eS-71" value="DÃ©but de la rÃ©alisation du code" style="align=left;strokeColor=#6c8ebf;html=1;fillColor=#dae8fc;" parent="1" vertex="1">
          <mxGeometry x="490" y="640" width="200" height="40" as="geometry" />
        </mxCell>
        <mxCell id="D_p1Tdk2fjc7s-4Ue-eS-72" value="AmÃ©lioration du cahier des charges" style="align=left;strokeColor=#6c8ebf;html=1;fillColor=#dae8fc;" parent="1" vertex="1">
          <mxGeometry x="690" y="720" width="240" height="20" as="geometry" />
        </mxCell>
        <mxCell id="D_p1Tdk2fjc7s-4Ue-eS-73" value="RÃ©alisation du code" style="align=left;strokeColor=#6c8ebf;html=1;fillColor=#dae8fc;" parent="1" vertex="1">
          <mxGeometry x="690" y="640" width="480" height="40" as="geometry" />
        </mxCell>
        <mxCell id="D_p1Tdk2fjc7s-4Ue-eS-74" value="RÃ©alisation du code" style="align=left;strokeColor=#6c8ebf;html=1;fillColor=#dae8fc;" parent="1" vertex="1">
          <mxGeometry x="640" y="480" width="290" height="40" as="geometry" />
        </mxCell>
        <mxCell id="D_p1Tdk2fjc7s-4Ue-eS-75" value="Diagramme &lt;br&gt;de classes" style="align=left;strokeColor=#6c8ebf;html=1;fillColor=#dae8fc;" parent="1" vertex="1">
          <mxGeometry x="290" y="560" width="80" height="40" as="geometry" />
        </mxCell>
        <mxCell id="D_p1Tdk2fjc7s-4Ue-eS-78" value="AmÃ©lioration du cahier des charges" style="align=left;strokeColor=#6c8ebf;html=1;fillColor=#dae8fc;" parent="1" vertex="1">
          <mxGeometry x="690" y="560" width="240" height="20" as="geometry" />
        </mxCell>
        <mxCell id="D_p1Tdk2fjc7s-4Ue-eS-80" value="Cahier des charges" style="align=left;strokeColor=#6c8ebf;html=1;fillColor=#dae8fc;" parent="1" vertex="1">
          <mxGeometry x="290" y="600" width="160" height="20" as="geometry" />
        </mxCell>
        <mxCell id="D_p1Tdk2fjc7s-4Ue-eS-83" value="Design de l&#39;application&lt;br&gt;et de ces composants" style="align=left;strokeColor=#6c8ebf;html=1;fillColor=#dae8fc;" parent="1" vertex="1">
          <mxGeometry x="1050" y="560" width="200" height="40" as="geometry" />
        </mxCell>
        <mxCell id="D_p1Tdk2fjc7s-4Ue-eS-84" value="Cas d&#39;Utilisations" style="align=left;strokeColor=#6c8ebf;html=1;fillColor=#dae8fc;" parent="1" vertex="1">
          <mxGeometry x="850" y="579.5" width="200" height="20" as="geometry" />
        </mxCell>
        <mxCell id="D_p1Tdk2fjc7s-4Ue-eS-85" value="Cas d&#39;Utilisations" style="align=left;strokeColor=#6c8ebf;html=1;fillColor=#dae8fc;" parent="1" vertex="1">
          <mxGeometry x="1010" y="720" width="160" height="20" as="geometry" />
        </mxCell>
        <mxCell id="D_p1Tdk2fjc7s-4Ue-eS-86" value="Cas de tests" style="align=left;strokeColor=#6c8ebf;html=1;fillColor=#dae8fc;" parent="1" vertex="1">
          <mxGeometry x="850" y="740" width="240" height="20" as="geometry" />
        </mxCell>
        <mxCell id="Xc61JS4KRZvFrqE5hFFe-2" value="Design&lt;br&gt;de l&#39;application&lt;br&gt;et de ces&lt;br&gt;composants" style="align=left;strokeColor=#6c8ebf;html=1;fillColor=#dae8fc;" parent="1" vertex="1">
          <mxGeometry x="1170" y="640" width="80" height="60" as="geometry" />
        </mxCell>
        <mxCell id="Xc61JS4KRZvFrqE5hFFe-3" value="Tests Unitaires" style="align=left;strokeColor=#6c8ebf;html=1;fillColor=#dae8fc;" parent="1" vertex="1">
          <mxGeometry x="1160" y="480" width="90" height="20" as="geometry" />
        </mxCell>
        <mxCell id="Xc61JS4KRZvFrqE5hFFe-4" value="AmÃ©lioration&lt;br&gt;du cahier&lt;br&gt;des charges" style="align=left;strokeColor=#6c8ebf;html=1;fillColor=#dae8fc;" parent="1" vertex="1">
          <mxGeometry x="1170" y="720" width="80" height="60" as="geometry" />
        </mxCell>
        <mxCell id="0DvpfSfohYq6to7H7ZtH-1" value="" style="endArrow=none;html=1;rounded=0;strokeColor=#FF0000;" parent="1" edge="1">
          <mxGeometry width="50" height="50" relative="1" as="geometry">
            <mxPoint x="1490" y="480" as="sourcePoint" />
            <mxPoint x="1490" y="841" as="targetPoint" />
          </mxGeometry>
        </mxCell>
        <mxCell id="0DvpfSfohYq6to7H7ZtH-2" value="8 Janvier" style="rounded=0;whiteSpace=wrap;html=1;" parent="1" vertex="1">
          <mxGeometry x="1430" y="840" width="120" height="60" as="geometry" />
        </mxCell>
        <mxCell id="0DvpfSfohYq6to7H7ZtH-3" value="RÃ©alisation du&lt;br&gt;code" style="align=left;strokeColor=#6c8ebf;html=1;fillColor=#dae8fc;" parent="1" vertex="1">
          <mxGeometry x="1330" y="640" width="80" height="40" as="geometry" />
        </mxCell>
        <mxCell id="0DvpfSfohYq6to7H7ZtH-4" value="AmÃ©lioration&lt;br&gt;du cahier&lt;br&gt;des charges" style="align=left;strokeColor=#6c8ebf;html=1;fillColor=#dae8fc;" parent="1" vertex="1">
          <mxGeometry x="1330" y="720" width="80" height="60" as="geometry" />
        </mxCell>
        <mxCell id="0DvpfSfohYq6to7H7ZtH-5" value="Tests Unitaires" style="align=left;strokeColor=#6c8ebf;html=1;fillColor=#dae8fc;" parent="1" vertex="1">
          <mxGeometry x="1410" y="640" width="80" height="20" as="geometry" />
        </mxCell>
        <mxCell id="0DvpfSfohYq6to7H7ZtH-6" value="AmÃ©lioration&lt;br&gt;du cahier&lt;br&gt;des charges" style="align=left;strokeColor=#6c8ebf;html=1;fillColor=#dae8fc;" parent="1" vertex="1">
          <mxGeometry x="1330" y="480" width="80" height="60" as="geometry" />
        </mxCell>
        <mxCell id="0DvpfSfohYq6to7H7ZtH-8" value="Cas&lt;br&gt;d&#39;Utilisations" style="align=left;strokeColor=#6c8ebf;html=1;fillColor=#dae8fc;" parent="1" vertex="1">
          <mxGeometry x="930" y="479.25" width="80" height="40.5" as="geometry" />
        </mxCell>
        <mxCell id="0DvpfSfohYq6to7H7ZtH-9" value="RÃ©alisation du code" style="align=left;strokeColor=#6c8ebf;html=1;fillColor=#dae8fc;" parent="1" vertex="1">
          <mxGeometry x="1010" y="479.5" width="150" height="40" as="geometry" />
        </mxCell>
        <mxCell id="0DvpfSfohYq6to7H7ZtH-11" value="Tests de&lt;br&gt;l&#39;application" style="align=left;strokeColor=#6c8ebf;html=1;fillColor=#dae8fc;" parent="1" vertex="1">
          <mxGeometry x="1410" y="480" width="80" height="40" as="geometry" />
        </mxCell>
        <mxCell id="0DvpfSfohYq6to7H7ZtH-12" value="" style="align=left;strokeColor=#CCCCCC;html=1;" parent="1" vertex="1">
          <mxGeometry x="1330" y="580" width="80" height="20" as="geometry" />
        </mxCell>
        <mxCell id="Xc61JS4KRZvFrqE5hFFe-1" value="RÃ©vision&lt;br&gt;de l&#39;ensemble&lt;br&gt;du projet" style="align=left;strokeColor=#6c8ebf;html=1;fillColor=#dae8fc;" parent="1" vertex="1">
          <mxGeometry x="1250" y="480" width="80" height="300" as="geometry" />
        </mxCell>
        <mxCell id="GvmEf_9hCkaW8rQPe4q8-2" value="Tests de&lt;br&gt;l&#39;application" style="align=left;strokeColor=#6c8ebf;html=1;fillColor=#dae8fc;" parent="1" vertex="1">
          <mxGeometry x="1410" y="720" width="80" height="40" as="geometry" />
        </mxCell>
        <mxCell id="GvmEf_9hCkaW8rQPe4q8-3" value="Tests de&lt;br&gt;l&#39;application" style="align=left;strokeColor=#6c8ebf;html=1;fillColor=#dae8fc;" parent="1" vertex="1">
          <mxGeometry x="1410" y="560" width="80" height="40" as="geometry" />
        </mxCell>
        <mxCell id="GvmEf_9hCkaW8rQPe4q8-4" value="Design&lt;br&gt;de l&#39;application&lt;br&gt;et de ces&lt;br&gt;composants" style="align=left;strokeColor=#6c8ebf;html=1;fillColor=#dae8fc;" parent="1" vertex="1">
          <mxGeometry x="1330" y="560" width="80" height="60" as="geometry" />
        </mxCell>
        <mxCell id="Ovf5yxKw_VYhyGTSIwcd-1" value="&lt;font style=&quot;font-size: 36px;&quot;&gt;Annexe 4 : Diagramme de Gantt&lt;/font&gt;" style="rounded=0;whiteSpace=wrap;html=1;" vertex="1" parent="1">
          <mxGeometry x="312" y="260" width="1130" height="60" as="geometry" />
        </mxCell>
      </root>
    </mxGraphModel>
  </diagram>
</mxfile>
